G04*
G04 #@! TF.GenerationSoftware,Altium Limited,Altium Designer,23.6.0 (18)*
G04*
G04 Layer_Color=16711935*
%FSLAX44Y44*%
%MOMM*%
G71*
G04*
G04 #@! TF.SameCoordinates,C98FF4F9-6FCD-44A5-A41D-EB2AB3F7E161*
G04*
G04*
G04 #@! TF.FilePolarity,Positive*
G04*
G01*
G75*
%ADD11C,0.2000*%
G36*
X488766Y300023D02*
X488756D01*
X488738D01*
X488701D01*
X488645Y300014D01*
X488590Y300004D01*
X488525D01*
X488368Y299977D01*
X488202Y299949D01*
X488035Y299893D01*
X487887Y299838D01*
X487822Y299801D01*
X487767Y299755D01*
X487758Y299745D01*
X487730Y299708D01*
X487684Y299653D01*
X487638Y299579D01*
X487582Y299477D01*
X487545Y299366D01*
X487508Y299228D01*
X487499Y299080D01*
Y299024D01*
X487508Y298969D01*
X487517Y298885D01*
X487536Y298802D01*
X487554Y298710D01*
X487591Y298617D01*
X487638Y298525D01*
X487647Y298516D01*
X487665Y298488D01*
X487702Y298451D01*
X487739Y298396D01*
X487804Y298349D01*
X487869Y298294D01*
X487943Y298248D01*
X488035Y298211D01*
X488044D01*
X488081Y298192D01*
X488146Y298183D01*
X488229Y298164D01*
X488340Y298146D01*
X488479Y298137D01*
X488645Y298118D01*
X488839D01*
X493250D01*
Y297267D01*
X488886D01*
X488876D01*
X488849D01*
X488812D01*
X488756D01*
X488682Y297277D01*
X488608D01*
X488433Y297295D01*
X488229Y297314D01*
X488017Y297351D01*
X487822Y297406D01*
X487638Y297471D01*
X487628D01*
X487619Y297480D01*
X487564Y297508D01*
X487490Y297554D01*
X487388Y297619D01*
X487286Y297711D01*
X487175Y297813D01*
X487064Y297943D01*
X486972Y298090D01*
X486963Y298109D01*
X486935Y298164D01*
X486898Y298248D01*
X486861Y298368D01*
X486815Y298516D01*
X486778Y298682D01*
X486750Y298867D01*
X486741Y299070D01*
Y299154D01*
X486750Y299209D01*
X486759Y299283D01*
X486768Y299357D01*
X486805Y299551D01*
X486861Y299755D01*
X486944Y299967D01*
X487000Y300078D01*
X487064Y300180D01*
X487138Y300272D01*
X487222Y300365D01*
X487231Y300374D01*
X487240Y300383D01*
X487277Y300402D01*
X487314Y300429D01*
X487360Y300466D01*
X487425Y300504D01*
X487499Y300541D01*
X487582Y300587D01*
X487675Y300624D01*
X487785Y300661D01*
X487896Y300698D01*
X488026Y300735D01*
X488165Y300753D01*
X488322Y300781D01*
X488479Y300790D01*
X488655D01*
X488766Y300023D01*
D02*
G37*
G36*
X491669Y295594D02*
X491687Y295576D01*
X491696Y295539D01*
X491724Y295492D01*
X491752Y295437D01*
X491789Y295372D01*
X491881Y295215D01*
X491983Y295030D01*
X492113Y294845D01*
X492260Y294651D01*
X492418Y294457D01*
X492427Y294448D01*
X492436Y294438D01*
X492464Y294411D01*
X492491Y294374D01*
X492584Y294290D01*
X492695Y294179D01*
X492824Y294069D01*
X492972Y293948D01*
X493120Y293847D01*
X493277Y293754D01*
Y293246D01*
X486852D01*
Y294032D01*
X491854D01*
X491844Y294041D01*
X491807Y294087D01*
X491752Y294142D01*
X491687Y294235D01*
X491604Y294337D01*
X491511Y294466D01*
X491410Y294614D01*
X491308Y294781D01*
Y294790D01*
X491299Y294799D01*
X491262Y294854D01*
X491216Y294947D01*
X491160Y295058D01*
X491096Y295187D01*
X491031Y295326D01*
X490966Y295465D01*
X490910Y295603D01*
X491669D01*
Y295594D01*
D02*
G37*
G36*
X426384Y336437D02*
X425598D01*
Y341439D01*
X425589Y341429D01*
X425542Y341393D01*
X425487Y341337D01*
X425395Y341272D01*
X425293Y341189D01*
X425163Y341097D01*
X425015Y340995D01*
X424849Y340893D01*
X424840D01*
X424831Y340884D01*
X424775Y340847D01*
X424683Y340801D01*
X424572Y340745D01*
X424442Y340681D01*
X424304Y340616D01*
X424165Y340551D01*
X424026Y340496D01*
Y341254D01*
X424035D01*
X424054Y341272D01*
X424091Y341282D01*
X424137Y341309D01*
X424193Y341337D01*
X424257Y341374D01*
X424414Y341466D01*
X424599Y341568D01*
X424784Y341698D01*
X424978Y341846D01*
X425173Y342003D01*
X425182Y342012D01*
X425191Y342021D01*
X425219Y342049D01*
X425256Y342077D01*
X425339Y342169D01*
X425450Y342280D01*
X425561Y342410D01*
X425681Y342557D01*
X425783Y342705D01*
X425875Y342863D01*
X426384D01*
Y336437D01*
D02*
G37*
G36*
X419699Y342937D02*
X419782D01*
X419866Y342927D01*
X419977Y342909D01*
X420088Y342890D01*
X420328Y342844D01*
X420605Y342770D01*
X420873Y342659D01*
X421012Y342594D01*
X421151Y342520D01*
X421160Y342511D01*
X421179Y342502D01*
X421215Y342474D01*
X421271Y342447D01*
X421326Y342400D01*
X421400Y342345D01*
X421558Y342215D01*
X421724Y342049D01*
X421909Y341846D01*
X422085Y341605D01*
X422233Y341337D01*
Y341328D01*
X422251Y341300D01*
X422269Y341263D01*
X422288Y341208D01*
X422325Y341134D01*
X422353Y341050D01*
X422390Y340949D01*
X422427Y340838D01*
X422454Y340718D01*
X422491Y340588D01*
X422528Y340449D01*
X422556Y340302D01*
X422593Y339978D01*
X422612Y339636D01*
Y339627D01*
Y339599D01*
Y339562D01*
Y339506D01*
X422602Y339432D01*
Y339349D01*
X422593Y339257D01*
X422584Y339164D01*
X422556Y338942D01*
X422510Y338702D01*
X422454Y338452D01*
X422371Y338212D01*
Y338203D01*
X422362Y338184D01*
X422343Y338147D01*
X422325Y338110D01*
X422297Y338055D01*
X422269Y337990D01*
X422196Y337842D01*
X422094Y337667D01*
X421964Y337482D01*
X421816Y337297D01*
X421650Y337112D01*
X421659D01*
X421678Y337093D01*
X421706Y337075D01*
X421752Y337047D01*
X421798Y337010D01*
X421863Y336973D01*
X422001Y336890D01*
X422168Y336788D01*
X422353Y336686D01*
X422547Y336603D01*
X422732Y336520D01*
X422482Y335938D01*
X422473D01*
X422454Y335947D01*
X422417Y335965D01*
X422362Y335984D01*
X422297Y336012D01*
X422223Y336049D01*
X422140Y336086D01*
X422048Y336132D01*
X421844Y336243D01*
X421613Y336372D01*
X421363Y336539D01*
X421105Y336723D01*
X421095D01*
X421077Y336705D01*
X421031Y336686D01*
X420984Y336659D01*
X420910Y336631D01*
X420836Y336594D01*
X420744Y336566D01*
X420642Y336529D01*
X420531Y336492D01*
X420411Y336455D01*
X420143Y336391D01*
X419847Y336344D01*
X419690Y336335D01*
X419533Y336326D01*
X419450D01*
X419385Y336335D01*
X419311D01*
X419218Y336344D01*
X419117Y336363D01*
X419006Y336381D01*
X418765Y336428D01*
X418497Y336502D01*
X418220Y336603D01*
X418090Y336668D01*
X417952Y336742D01*
X417943Y336751D01*
X417924Y336760D01*
X417887Y336788D01*
X417841Y336816D01*
X417776Y336862D01*
X417711Y336918D01*
X417554Y337047D01*
X417379Y337213D01*
X417203Y337417D01*
X417027Y337648D01*
X416870Y337916D01*
Y337925D01*
X416852Y337953D01*
X416833Y337990D01*
X416814Y338046D01*
X416787Y338120D01*
X416750Y338203D01*
X416713Y338304D01*
X416685Y338415D01*
X416648Y338536D01*
X416611Y338665D01*
X416583Y338804D01*
X416546Y338961D01*
X416509Y339285D01*
X416491Y339627D01*
Y339636D01*
Y339673D01*
Y339719D01*
X416500Y339784D01*
Y339867D01*
X416509Y339969D01*
X416519Y340080D01*
X416537Y340200D01*
X416583Y340468D01*
X416648Y340755D01*
X416741Y341060D01*
X416870Y341356D01*
X416879Y341365D01*
X416889Y341393D01*
X416907Y341429D01*
X416944Y341485D01*
X416981Y341550D01*
X417027Y341624D01*
X417157Y341799D01*
X417305Y341984D01*
X417499Y342178D01*
X417711Y342373D01*
X417961Y342539D01*
X417970Y342548D01*
X417998Y342557D01*
X418035Y342576D01*
X418090Y342604D01*
X418155Y342631D01*
X418229Y342668D01*
X418322Y342705D01*
X418423Y342742D01*
X418544Y342779D01*
X418664Y342816D01*
X418932Y342881D01*
X419228Y342927D01*
X419385Y342946D01*
X419634D01*
X419699Y342937D01*
D02*
G37*
G36*
X269101Y450245D02*
X269166D01*
X269240Y450236D01*
X269416Y450199D01*
X269610Y450153D01*
X269813Y450079D01*
X270017Y449968D01*
X270118Y449903D01*
X270211Y449829D01*
X270220Y449820D01*
X270229Y449810D01*
X270257Y449783D01*
X270285Y449755D01*
X270331Y449709D01*
X270368Y449653D01*
X270470Y449524D01*
X270571Y449357D01*
X270664Y449154D01*
X270747Y448923D01*
X270803Y448664D01*
X270017Y448599D01*
Y448609D01*
X270007Y448618D01*
X269998Y448673D01*
X269970Y448756D01*
X269933Y448858D01*
X269897Y448969D01*
X269841Y449080D01*
X269776Y449182D01*
X269712Y449265D01*
X269693Y449283D01*
X269656Y449320D01*
X269591Y449376D01*
X269499Y449441D01*
X269379Y449496D01*
X269249Y449552D01*
X269092Y449589D01*
X268926Y449607D01*
X268861D01*
X268787Y449598D01*
X268704Y449579D01*
X268593Y449552D01*
X268482Y449515D01*
X268371Y449468D01*
X268260Y449394D01*
X268242Y449385D01*
X268195Y449348D01*
X268131Y449283D01*
X268047Y449191D01*
X267955Y449080D01*
X267853Y448951D01*
X267761Y448784D01*
X267668Y448599D01*
Y448590D01*
X267659Y448572D01*
X267650Y448544D01*
X267631Y448507D01*
X267622Y448451D01*
X267604Y448387D01*
X267585Y448313D01*
X267567Y448220D01*
X267539Y448119D01*
X267520Y448008D01*
X267502Y447887D01*
X267493Y447758D01*
X267474Y447610D01*
X267465Y447462D01*
X267456Y447296D01*
Y447129D01*
X267465Y447138D01*
X267502Y447194D01*
X267567Y447268D01*
X267650Y447360D01*
X267742Y447471D01*
X267862Y447573D01*
X267992Y447675D01*
X268140Y447767D01*
X268149D01*
X268158Y447776D01*
X268214Y447804D01*
X268297Y447832D01*
X268408Y447878D01*
X268537Y447915D01*
X268685Y447943D01*
X268843Y447971D01*
X269009Y447980D01*
X269083D01*
X269138Y447971D01*
X269212Y447961D01*
X269286Y447952D01*
X269379Y447934D01*
X269471Y447906D01*
X269684Y447841D01*
X269795Y447795D01*
X269906Y447730D01*
X270017Y447665D01*
X270137Y447592D01*
X270248Y447499D01*
X270350Y447397D01*
X270359Y447388D01*
X270377Y447370D01*
X270405Y447342D01*
X270433Y447296D01*
X270479Y447231D01*
X270525Y447166D01*
X270571Y447083D01*
X270627Y446991D01*
X270682Y446889D01*
X270729Y446778D01*
X270775Y446648D01*
X270821Y446519D01*
X270849Y446380D01*
X270877Y446223D01*
X270895Y446066D01*
X270904Y445900D01*
Y445890D01*
Y445872D01*
Y445844D01*
Y445798D01*
X270895Y445742D01*
Y445687D01*
X270867Y445539D01*
X270840Y445363D01*
X270793Y445178D01*
X270729Y444975D01*
X270636Y444781D01*
Y444772D01*
X270627Y444762D01*
X270608Y444735D01*
X270590Y444698D01*
X270534Y444605D01*
X270451Y444485D01*
X270350Y444356D01*
X270229Y444226D01*
X270081Y444097D01*
X269924Y443986D01*
X269915D01*
X269906Y443976D01*
X269878Y443958D01*
X269841Y443949D01*
X269749Y443903D01*
X269628Y443856D01*
X269471Y443801D01*
X269296Y443764D01*
X269101Y443727D01*
X268889Y443718D01*
X268843D01*
X268796Y443727D01*
X268722D01*
X268639Y443736D01*
X268547Y443755D01*
X268436Y443782D01*
X268325Y443810D01*
X268195Y443847D01*
X268066Y443893D01*
X267936Y443949D01*
X267798Y444023D01*
X267668Y444106D01*
X267539Y444198D01*
X267409Y444309D01*
X267289Y444439D01*
X267280Y444448D01*
X267262Y444476D01*
X267234Y444513D01*
X267197Y444577D01*
X267141Y444661D01*
X267095Y444753D01*
X267040Y444873D01*
X266984Y445003D01*
X266919Y445160D01*
X266864Y445336D01*
X266818Y445530D01*
X266772Y445742D01*
X266725Y445983D01*
X266698Y446242D01*
X266679Y446519D01*
X266670Y446815D01*
Y446824D01*
Y446833D01*
Y446861D01*
Y446898D01*
X266679Y446991D01*
Y447120D01*
X266688Y447268D01*
X266707Y447444D01*
X266725Y447638D01*
X266753Y447850D01*
X266790Y448063D01*
X266836Y448294D01*
X266892Y448516D01*
X266956Y448738D01*
X267040Y448951D01*
X267132Y449154D01*
X267234Y449348D01*
X267354Y449515D01*
X267363Y449524D01*
X267382Y449542D01*
X267419Y449579D01*
X267465Y449635D01*
X267520Y449690D01*
X267594Y449746D01*
X267687Y449820D01*
X267779Y449884D01*
X267890Y449949D01*
X268010Y450023D01*
X268149Y450079D01*
X268288Y450143D01*
X268445Y450190D01*
X268611Y450227D01*
X268787Y450245D01*
X268972Y450254D01*
X269046D01*
X269101Y450245D01*
D02*
G37*
G36*
X265644Y445863D02*
Y445853D01*
Y445826D01*
Y445789D01*
Y445733D01*
X265634Y445659D01*
Y445585D01*
X265616Y445410D01*
X265597Y445206D01*
X265560Y444993D01*
X265505Y444799D01*
X265440Y444614D01*
Y444605D01*
X265431Y444596D01*
X265403Y444540D01*
X265357Y444466D01*
X265292Y444365D01*
X265200Y444263D01*
X265098Y444152D01*
X264969Y444041D01*
X264821Y443949D01*
X264802Y443939D01*
X264747Y443912D01*
X264664Y443875D01*
X264543Y443838D01*
X264395Y443792D01*
X264229Y443755D01*
X264044Y443727D01*
X263841Y443718D01*
X263757D01*
X263702Y443727D01*
X263628Y443736D01*
X263554Y443745D01*
X263360Y443782D01*
X263156Y443838D01*
X262944Y443921D01*
X262833Y443976D01*
X262731Y444041D01*
X262639Y444115D01*
X262546Y444198D01*
X262537Y444208D01*
X262528Y444217D01*
X262509Y444254D01*
X262481Y444291D01*
X262444Y444337D01*
X262408Y444402D01*
X262371Y444476D01*
X262324Y444559D01*
X262287Y444651D01*
X262250Y444762D01*
X262213Y444873D01*
X262176Y445003D01*
X262158Y445141D01*
X262130Y445299D01*
X262121Y445456D01*
Y445631D01*
X262888Y445742D01*
Y445733D01*
Y445715D01*
Y445678D01*
X262898Y445622D01*
X262907Y445567D01*
Y445502D01*
X262935Y445345D01*
X262962Y445178D01*
X263018Y445012D01*
X263073Y444864D01*
X263110Y444799D01*
X263156Y444744D01*
X263166Y444735D01*
X263203Y444707D01*
X263258Y444661D01*
X263332Y444614D01*
X263434Y444559D01*
X263545Y444522D01*
X263683Y444485D01*
X263831Y444476D01*
X263887D01*
X263942Y444485D01*
X264025Y444494D01*
X264109Y444513D01*
X264201Y444531D01*
X264294Y444568D01*
X264386Y444614D01*
X264395Y444624D01*
X264423Y444642D01*
X264460Y444679D01*
X264515Y444716D01*
X264562Y444781D01*
X264617Y444846D01*
X264664Y444920D01*
X264701Y445012D01*
Y445021D01*
X264719Y445058D01*
X264728Y445123D01*
X264747Y445206D01*
X264765Y445317D01*
X264774Y445456D01*
X264793Y445622D01*
Y445816D01*
Y450227D01*
X265644D01*
Y445863D01*
D02*
G37*
G36*
X156824Y447132D02*
Y447123D01*
Y447095D01*
Y447059D01*
Y447003D01*
X156814Y446929D01*
Y446855D01*
X156796Y446679D01*
X156777Y446476D01*
X156740Y446263D01*
X156685Y446069D01*
X156620Y445884D01*
Y445875D01*
X156611Y445866D01*
X156583Y445810D01*
X156537Y445736D01*
X156472Y445635D01*
X156380Y445533D01*
X156278Y445422D01*
X156149Y445311D01*
X156001Y445219D01*
X155982Y445209D01*
X155927Y445182D01*
X155843Y445145D01*
X155723Y445108D01*
X155575Y445061D01*
X155409Y445024D01*
X155224Y444997D01*
X155021Y444988D01*
X154937D01*
X154882Y444997D01*
X154808Y445006D01*
X154734Y445015D01*
X154540Y445052D01*
X154336Y445108D01*
X154124Y445191D01*
X154013Y445246D01*
X153911Y445311D01*
X153819Y445385D01*
X153726Y445468D01*
X153717Y445478D01*
X153708Y445487D01*
X153689Y445524D01*
X153661Y445561D01*
X153624Y445607D01*
X153588Y445672D01*
X153551Y445746D01*
X153504Y445829D01*
X153467Y445921D01*
X153430Y446032D01*
X153393Y446143D01*
X153356Y446273D01*
X153338Y446411D01*
X153310Y446569D01*
X153301Y446726D01*
Y446901D01*
X154068Y447012D01*
Y447003D01*
Y446985D01*
Y446948D01*
X154078Y446892D01*
X154087Y446837D01*
Y446772D01*
X154115Y446615D01*
X154142Y446448D01*
X154198Y446282D01*
X154253Y446134D01*
X154290Y446069D01*
X154336Y446014D01*
X154346Y446005D01*
X154383Y445977D01*
X154438Y445931D01*
X154512Y445884D01*
X154614Y445829D01*
X154725Y445792D01*
X154863Y445755D01*
X155011Y445746D01*
X155067D01*
X155122Y445755D01*
X155205Y445764D01*
X155289Y445783D01*
X155381Y445801D01*
X155474Y445838D01*
X155566Y445884D01*
X155575Y445894D01*
X155603Y445912D01*
X155640Y445949D01*
X155695Y445986D01*
X155742Y446051D01*
X155797Y446115D01*
X155843Y446189D01*
X155880Y446282D01*
Y446291D01*
X155899Y446328D01*
X155908Y446393D01*
X155927Y446476D01*
X155945Y446587D01*
X155954Y446726D01*
X155973Y446892D01*
Y447086D01*
Y451497D01*
X156824D01*
Y447132D01*
D02*
G37*
G36*
X162084Y450794D02*
X162075Y450784D01*
X162057Y450766D01*
X162020Y450729D01*
X161983Y450674D01*
X161927Y450609D01*
X161853Y450535D01*
X161779Y450443D01*
X161696Y450331D01*
X161613Y450221D01*
X161511Y450091D01*
X161409Y449943D01*
X161308Y449795D01*
X161197Y449629D01*
X161086Y449453D01*
X160975Y449259D01*
X160864Y449065D01*
X160855Y449056D01*
X160836Y449019D01*
X160808Y448963D01*
X160762Y448880D01*
X160716Y448778D01*
X160660Y448667D01*
X160596Y448538D01*
X160531Y448390D01*
X160457Y448223D01*
X160374Y448057D01*
X160300Y447872D01*
X160226Y447678D01*
X160078Y447281D01*
X159939Y446855D01*
Y446846D01*
X159930Y446818D01*
X159921Y446772D01*
X159902Y446716D01*
X159884Y446642D01*
X159865Y446550D01*
X159838Y446448D01*
X159819Y446337D01*
X159791Y446208D01*
X159764Y446069D01*
X159717Y445773D01*
X159671Y445450D01*
X159643Y445098D01*
X158839D01*
Y445108D01*
Y445135D01*
Y445173D01*
X158848Y445228D01*
Y445302D01*
X158857Y445394D01*
X158867Y445496D01*
X158876Y445607D01*
X158895Y445736D01*
X158913Y445866D01*
X158941Y446023D01*
X158968Y446180D01*
X158996Y446347D01*
X159033Y446532D01*
X159126Y446911D01*
Y446920D01*
X159135Y446957D01*
X159153Y447012D01*
X159181Y447095D01*
X159209Y447188D01*
X159246Y447299D01*
X159283Y447428D01*
X159338Y447567D01*
X159394Y447724D01*
X159449Y447881D01*
X159588Y448233D01*
X159754Y448603D01*
X159939Y448972D01*
X159949Y448982D01*
X159967Y449019D01*
X159995Y449065D01*
X160032Y449139D01*
X160078Y449222D01*
X160143Y449324D01*
X160207Y449435D01*
X160281Y449555D01*
X160457Y449823D01*
X160642Y450100D01*
X160855Y450387D01*
X161077Y450655D01*
X157942D01*
Y451413D01*
X162084D01*
Y450794D01*
D02*
G37*
G36*
X490206Y191003D02*
X490196D01*
X490178D01*
X490141D01*
X490085Y190993D01*
X490030Y190984D01*
X489965D01*
X489808Y190956D01*
X489642Y190929D01*
X489475Y190873D01*
X489327Y190818D01*
X489263Y190781D01*
X489207Y190735D01*
X489198Y190725D01*
X489170Y190688D01*
X489124Y190633D01*
X489078Y190559D01*
X489022Y190457D01*
X488985Y190346D01*
X488948Y190208D01*
X488939Y190060D01*
Y190004D01*
X488948Y189949D01*
X488957Y189865D01*
X488976Y189782D01*
X488994Y189690D01*
X489031Y189597D01*
X489078Y189505D01*
X489087Y189496D01*
X489105Y189468D01*
X489142Y189431D01*
X489179Y189375D01*
X489244Y189329D01*
X489309Y189274D01*
X489383Y189228D01*
X489475Y189191D01*
X489484D01*
X489521Y189172D01*
X489586Y189163D01*
X489669Y189144D01*
X489780Y189126D01*
X489919Y189117D01*
X490085Y189098D01*
X490280D01*
X494690D01*
Y188248D01*
X490326D01*
X490317D01*
X490289D01*
X490252D01*
X490196D01*
X490122Y188257D01*
X490048D01*
X489873Y188275D01*
X489669Y188294D01*
X489457Y188331D01*
X489263Y188386D01*
X489078Y188451D01*
X489068D01*
X489059Y188460D01*
X489004Y188488D01*
X488930Y188534D01*
X488828Y188599D01*
X488726Y188691D01*
X488615Y188793D01*
X488504Y188922D01*
X488412Y189070D01*
X488403Y189089D01*
X488375Y189144D01*
X488338Y189228D01*
X488301Y189348D01*
X488255Y189496D01*
X488218Y189662D01*
X488190Y189847D01*
X488181Y190050D01*
Y190134D01*
X488190Y190189D01*
X488199Y190263D01*
X488209Y190337D01*
X488246Y190531D01*
X488301Y190735D01*
X488384Y190947D01*
X488440Y191058D01*
X488504Y191160D01*
X488578Y191252D01*
X488662Y191345D01*
X488671Y191354D01*
X488680Y191363D01*
X488717Y191382D01*
X488754Y191409D01*
X488800Y191446D01*
X488865Y191483D01*
X488939Y191520D01*
X489022Y191567D01*
X489115Y191604D01*
X489226Y191641D01*
X489337Y191678D01*
X489466Y191715D01*
X489605Y191733D01*
X489762Y191761D01*
X489919Y191770D01*
X490095D01*
X490206Y191003D01*
D02*
G37*
G36*
X494690Y184522D02*
Y183884D01*
X490548D01*
Y183015D01*
X489827D01*
Y183884D01*
X488292D01*
Y184669D01*
X489827D01*
Y187452D01*
X490548D01*
X494690Y184522D01*
D02*
G37*
G36*
X178937Y81287D02*
X179057Y81269D01*
X179205Y81241D01*
X179372Y81195D01*
X179538Y81139D01*
X179704Y81065D01*
X179714D01*
X179723Y81056D01*
X179778Y81028D01*
X179862Y80973D01*
X179954Y80908D01*
X180065Y80816D01*
X180176Y80714D01*
X180287Y80594D01*
X180379Y80455D01*
X180389Y80437D01*
X180416Y80390D01*
X180453Y80307D01*
X180500Y80205D01*
X180546Y80085D01*
X180583Y79947D01*
X180611Y79790D01*
X180620Y79632D01*
Y79614D01*
Y79558D01*
X180611Y79484D01*
X180592Y79383D01*
X180564Y79262D01*
X180518Y79133D01*
X180463Y79004D01*
X180389Y78874D01*
X180379Y78856D01*
X180352Y78819D01*
X180296Y78754D01*
X180222Y78680D01*
X180130Y78597D01*
X180019Y78504D01*
X179889Y78421D01*
X179732Y78338D01*
X179741D01*
X179760Y78329D01*
X179788Y78319D01*
X179825Y78310D01*
X179926Y78273D01*
X180056Y78218D01*
X180204Y78144D01*
X180352Y78051D01*
X180490Y77931D01*
X180620Y77792D01*
X180629Y77774D01*
X180666Y77719D01*
X180721Y77626D01*
X180777Y77506D01*
X180832Y77358D01*
X180888Y77182D01*
X180925Y76979D01*
X180934Y76757D01*
Y76748D01*
Y76720D01*
Y76674D01*
X180925Y76618D01*
X180916Y76544D01*
X180897Y76461D01*
X180879Y76369D01*
X180860Y76267D01*
X180786Y76045D01*
X180731Y75925D01*
X180675Y75814D01*
X180601Y75694D01*
X180518Y75574D01*
X180426Y75453D01*
X180315Y75342D01*
X180305Y75333D01*
X180287Y75315D01*
X180250Y75287D01*
X180204Y75250D01*
X180148Y75204D01*
X180074Y75157D01*
X179991Y75102D01*
X179889Y75056D01*
X179788Y75000D01*
X179667Y74945D01*
X179547Y74899D01*
X179409Y74852D01*
X179261Y74815D01*
X179104Y74788D01*
X178946Y74769D01*
X178771Y74760D01*
X178687D01*
X178632Y74769D01*
X178558Y74778D01*
X178475Y74788D01*
X178382Y74806D01*
X178281Y74825D01*
X178059Y74880D01*
X177828Y74973D01*
X177707Y75028D01*
X177596Y75093D01*
X177486Y75176D01*
X177375Y75259D01*
X177365Y75268D01*
X177347Y75287D01*
X177319Y75315D01*
X177291Y75352D01*
X177245Y75398D01*
X177199Y75462D01*
X177143Y75527D01*
X177088Y75610D01*
X177033Y75703D01*
X176977Y75795D01*
X176875Y76017D01*
X176792Y76276D01*
X176764Y76415D01*
X176746Y76563D01*
X177532Y76665D01*
Y76655D01*
X177541Y76637D01*
X177550Y76600D01*
X177560Y76554D01*
X177569Y76498D01*
X177587Y76433D01*
X177633Y76295D01*
X177698Y76128D01*
X177781Y75971D01*
X177874Y75823D01*
X177985Y75694D01*
X178003Y75684D01*
X178040Y75647D01*
X178114Y75601D01*
X178207Y75555D01*
X178318Y75500D01*
X178456Y75453D01*
X178613Y75416D01*
X178780Y75407D01*
X178835D01*
X178872Y75416D01*
X178974Y75426D01*
X179104Y75453D01*
X179251Y75500D01*
X179409Y75564D01*
X179566Y75657D01*
X179714Y75786D01*
X179732Y75805D01*
X179778Y75860D01*
X179834Y75943D01*
X179908Y76054D01*
X179982Y76193D01*
X180037Y76350D01*
X180084Y76535D01*
X180102Y76738D01*
Y76748D01*
Y76766D01*
Y76794D01*
X180093Y76831D01*
X180084Y76933D01*
X180056Y77053D01*
X180019Y77201D01*
X179954Y77349D01*
X179862Y77497D01*
X179741Y77635D01*
X179723Y77654D01*
X179677Y77691D01*
X179603Y77746D01*
X179501Y77811D01*
X179372Y77876D01*
X179214Y77931D01*
X179039Y77968D01*
X178845Y77987D01*
X178761D01*
X178697Y77977D01*
X178613Y77968D01*
X178521Y77950D01*
X178410Y77931D01*
X178290Y77903D01*
X178382Y78597D01*
X178429D01*
X178466Y78587D01*
X178586D01*
X178687Y78606D01*
X178808Y78625D01*
X178946Y78652D01*
X179104Y78699D01*
X179251Y78763D01*
X179409Y78846D01*
X179418D01*
X179427Y78856D01*
X179473Y78893D01*
X179538Y78957D01*
X179612Y79041D01*
X179686Y79161D01*
X179751Y79300D01*
X179797Y79457D01*
X179815Y79549D01*
Y79651D01*
Y79660D01*
Y79669D01*
Y79725D01*
X179797Y79799D01*
X179778Y79900D01*
X179741Y80011D01*
X179695Y80132D01*
X179621Y80252D01*
X179520Y80363D01*
X179510Y80372D01*
X179464Y80409D01*
X179399Y80455D01*
X179316Y80511D01*
X179205Y80557D01*
X179076Y80603D01*
X178928Y80640D01*
X178761Y80649D01*
X178687D01*
X178604Y80631D01*
X178493Y80612D01*
X178373Y80575D01*
X178253Y80529D01*
X178123Y80455D01*
X178003Y80363D01*
X177994Y80353D01*
X177957Y80307D01*
X177902Y80243D01*
X177837Y80150D01*
X177772Y80030D01*
X177707Y79882D01*
X177652Y79706D01*
X177615Y79503D01*
X176829Y79641D01*
Y79651D01*
X176838Y79679D01*
X176848Y79715D01*
X176857Y79771D01*
X176875Y79836D01*
X176903Y79910D01*
X176959Y80085D01*
X177051Y80289D01*
X177162Y80492D01*
X177301Y80686D01*
X177476Y80862D01*
X177486Y80871D01*
X177504Y80880D01*
X177532Y80899D01*
X177569Y80927D01*
X177615Y80964D01*
X177680Y81001D01*
X177744Y81038D01*
X177828Y81084D01*
X178013Y81158D01*
X178225Y81232D01*
X178475Y81278D01*
X178604Y81297D01*
X178835D01*
X178937Y81287D01*
D02*
G37*
G36*
X175673Y76905D02*
Y76896D01*
Y76868D01*
Y76831D01*
Y76775D01*
X175664Y76701D01*
Y76627D01*
X175646Y76452D01*
X175627Y76248D01*
X175590Y76036D01*
X175535Y75842D01*
X175470Y75657D01*
Y75647D01*
X175461Y75638D01*
X175433Y75583D01*
X175387Y75509D01*
X175322Y75407D01*
X175230Y75305D01*
X175128Y75194D01*
X174998Y75083D01*
X174851Y74991D01*
X174832Y74982D01*
X174777Y74954D01*
X174693Y74917D01*
X174573Y74880D01*
X174425Y74834D01*
X174259Y74797D01*
X174074Y74769D01*
X173871Y74760D01*
X173787D01*
X173732Y74769D01*
X173658Y74778D01*
X173584Y74788D01*
X173390Y74825D01*
X173186Y74880D01*
X172974Y74963D01*
X172863Y75019D01*
X172761Y75083D01*
X172669Y75157D01*
X172576Y75241D01*
X172567Y75250D01*
X172558Y75259D01*
X172539Y75296D01*
X172511Y75333D01*
X172474Y75379D01*
X172437Y75444D01*
X172400Y75518D01*
X172354Y75601D01*
X172317Y75694D01*
X172280Y75805D01*
X172243Y75916D01*
X172206Y76045D01*
X172188Y76184D01*
X172160Y76341D01*
X172151Y76498D01*
Y76674D01*
X172918Y76785D01*
Y76775D01*
Y76757D01*
Y76720D01*
X172927Y76665D01*
X172937Y76609D01*
Y76544D01*
X172964Y76387D01*
X172992Y76221D01*
X173048Y76054D01*
X173103Y75906D01*
X173140Y75842D01*
X173186Y75786D01*
X173196Y75777D01*
X173232Y75749D01*
X173288Y75703D01*
X173362Y75657D01*
X173464Y75601D01*
X173575Y75564D01*
X173713Y75527D01*
X173861Y75518D01*
X173917D01*
X173972Y75527D01*
X174055Y75536D01*
X174139Y75555D01*
X174231Y75574D01*
X174324Y75610D01*
X174416Y75657D01*
X174425Y75666D01*
X174453Y75684D01*
X174490Y75721D01*
X174545Y75758D01*
X174592Y75823D01*
X174647Y75888D01*
X174693Y75962D01*
X174730Y76054D01*
Y76063D01*
X174749Y76101D01*
X174758Y76165D01*
X174777Y76248D01*
X174795Y76359D01*
X174804Y76498D01*
X174823Y76665D01*
Y76859D01*
Y81269D01*
X175673D01*
Y76905D01*
D02*
G37*
G36*
X77883Y75635D02*
Y75626D01*
Y75598D01*
Y75561D01*
Y75505D01*
X77874Y75431D01*
Y75357D01*
X77856Y75182D01*
X77837Y74978D01*
X77800Y74766D01*
X77745Y74572D01*
X77680Y74387D01*
Y74377D01*
X77671Y74368D01*
X77643Y74313D01*
X77597Y74239D01*
X77532Y74137D01*
X77440Y74035D01*
X77338Y73924D01*
X77208Y73814D01*
X77060Y73721D01*
X77042Y73712D01*
X76987Y73684D01*
X76903Y73647D01*
X76783Y73610D01*
X76635Y73564D01*
X76469Y73527D01*
X76284Y73499D01*
X76080Y73490D01*
X75997D01*
X75942Y73499D01*
X75868Y73508D01*
X75794Y73518D01*
X75600Y73555D01*
X75396Y73610D01*
X75184Y73693D01*
X75073Y73749D01*
X74971Y73814D01*
X74879Y73887D01*
X74786Y73971D01*
X74777Y73980D01*
X74768Y73989D01*
X74749Y74026D01*
X74721Y74063D01*
X74684Y74109D01*
X74647Y74174D01*
X74610Y74248D01*
X74564Y74331D01*
X74527Y74424D01*
X74490Y74535D01*
X74453Y74646D01*
X74416Y74775D01*
X74398Y74914D01*
X74370Y75071D01*
X74361Y75228D01*
Y75404D01*
X75128Y75515D01*
Y75505D01*
Y75487D01*
Y75450D01*
X75137Y75395D01*
X75147Y75339D01*
Y75274D01*
X75174Y75117D01*
X75202Y74951D01*
X75258Y74784D01*
X75313Y74636D01*
X75350Y74572D01*
X75396Y74516D01*
X75406Y74507D01*
X75443Y74479D01*
X75498Y74433D01*
X75572Y74387D01*
X75674Y74331D01*
X75785Y74294D01*
X75923Y74257D01*
X76071Y74248D01*
X76127D01*
X76182Y74257D01*
X76265Y74267D01*
X76349Y74285D01*
X76441Y74303D01*
X76533Y74341D01*
X76626Y74387D01*
X76635Y74396D01*
X76663Y74414D01*
X76700Y74451D01*
X76755Y74488D01*
X76802Y74553D01*
X76857Y74618D01*
X76903Y74692D01*
X76940Y74784D01*
Y74794D01*
X76959Y74830D01*
X76968Y74895D01*
X76987Y74978D01*
X77005Y75089D01*
X77014Y75228D01*
X77033Y75395D01*
Y75589D01*
Y79999D01*
X77883D01*
Y75635D01*
D02*
G37*
G36*
X81221Y80017D02*
X81295Y80008D01*
X81388Y79999D01*
X81489Y79980D01*
X81591Y79962D01*
X81831Y79897D01*
X82072Y79805D01*
X82192Y79749D01*
X82312Y79684D01*
X82423Y79601D01*
X82525Y79509D01*
X82534Y79500D01*
X82552Y79490D01*
X82571Y79453D01*
X82608Y79416D01*
X82654Y79370D01*
X82700Y79305D01*
X82747Y79241D01*
X82802Y79157D01*
X82894Y78982D01*
X82987Y78760D01*
X83024Y78649D01*
X83042Y78520D01*
X83061Y78390D01*
X83070Y78251D01*
Y78233D01*
Y78187D01*
X83061Y78113D01*
X83052Y78011D01*
X83033Y77900D01*
X82996Y77771D01*
X82959Y77632D01*
X82904Y77493D01*
X82894Y77475D01*
X82876Y77428D01*
X82839Y77354D01*
X82784Y77253D01*
X82710Y77142D01*
X82617Y77003D01*
X82506Y76865D01*
X82377Y76707D01*
X82358Y76689D01*
X82312Y76633D01*
X82266Y76587D01*
X82220Y76541D01*
X82164Y76485D01*
X82090Y76411D01*
X82016Y76337D01*
X81924Y76254D01*
X81831Y76162D01*
X81720Y76060D01*
X81600Y75958D01*
X81471Y75838D01*
X81323Y75718D01*
X81175Y75589D01*
X81166Y75579D01*
X81147Y75561D01*
X81110Y75533D01*
X81064Y75496D01*
X81008Y75441D01*
X80944Y75385D01*
X80796Y75265D01*
X80639Y75126D01*
X80491Y74988D01*
X80361Y74868D01*
X80306Y74821D01*
X80260Y74775D01*
X80250Y74766D01*
X80223Y74738D01*
X80185Y74701D01*
X80139Y74646D01*
X80093Y74581D01*
X80038Y74516D01*
X79927Y74359D01*
X83079D01*
Y73601D01*
X78836D01*
Y73610D01*
Y73647D01*
Y73703D01*
X78845Y73776D01*
X78854Y73860D01*
X78873Y73952D01*
X78891Y74045D01*
X78928Y74146D01*
Y74156D01*
X78937Y74165D01*
X78956Y74220D01*
X78993Y74303D01*
X79048Y74414D01*
X79122Y74544D01*
X79215Y74692D01*
X79317Y74840D01*
X79446Y74997D01*
Y75006D01*
X79464Y75015D01*
X79511Y75071D01*
X79594Y75154D01*
X79714Y75274D01*
X79853Y75413D01*
X80028Y75579D01*
X80241Y75764D01*
X80472Y75958D01*
X80481Y75968D01*
X80518Y75995D01*
X80574Y76042D01*
X80639Y76097D01*
X80722Y76171D01*
X80823Y76254D01*
X80925Y76347D01*
X81045Y76448D01*
X81277Y76670D01*
X81508Y76892D01*
X81619Y77003D01*
X81720Y77114D01*
X81813Y77216D01*
X81887Y77318D01*
Y77327D01*
X81905Y77336D01*
X81924Y77364D01*
X81942Y77401D01*
X82007Y77502D01*
X82081Y77623D01*
X82146Y77771D01*
X82210Y77928D01*
X82247Y78103D01*
X82266Y78270D01*
Y78279D01*
Y78288D01*
X82257Y78344D01*
X82247Y78436D01*
X82220Y78538D01*
X82183Y78667D01*
X82118Y78797D01*
X82035Y78926D01*
X81924Y79056D01*
X81905Y79074D01*
X81859Y79111D01*
X81794Y79157D01*
X81693Y79222D01*
X81563Y79278D01*
X81415Y79333D01*
X81240Y79370D01*
X81045Y79379D01*
X80990D01*
X80953Y79370D01*
X80842Y79361D01*
X80712Y79333D01*
X80574Y79296D01*
X80417Y79231D01*
X80269Y79148D01*
X80130Y79037D01*
X80112Y79019D01*
X80075Y78973D01*
X80019Y78899D01*
X79964Y78788D01*
X79899Y78658D01*
X79844Y78492D01*
X79806Y78307D01*
X79788Y78094D01*
X78984Y78177D01*
Y78187D01*
X78993Y78214D01*
Y78261D01*
X79002Y78325D01*
X79021Y78399D01*
X79039Y78482D01*
X79067Y78584D01*
X79095Y78686D01*
X79169Y78908D01*
X79279Y79130D01*
X79344Y79241D01*
X79427Y79352D01*
X79511Y79453D01*
X79603Y79546D01*
X79612Y79555D01*
X79631Y79564D01*
X79658Y79592D01*
X79705Y79620D01*
X79760Y79657D01*
X79825Y79694D01*
X79899Y79740D01*
X79991Y79786D01*
X80093Y79832D01*
X80204Y79879D01*
X80324Y79916D01*
X80454Y79953D01*
X80592Y79980D01*
X80740Y80008D01*
X80898Y80017D01*
X81064Y80027D01*
X81156D01*
X81221Y80017D01*
D02*
G37*
G36*
X182270Y174410D02*
X178571D01*
X178562D01*
X178535D01*
X178488D01*
X178433D01*
X178368Y174400D01*
X178285D01*
X178109Y174391D01*
X177906Y174373D01*
X177702Y174345D01*
X177508Y174308D01*
X177425Y174289D01*
X177342Y174262D01*
X177323Y174252D01*
X177277Y174234D01*
X177212Y174188D01*
X177120Y174132D01*
X177027Y174067D01*
X176926Y173975D01*
X176824Y173864D01*
X176741Y173735D01*
X176732Y173716D01*
X176704Y173670D01*
X176676Y173587D01*
X176639Y173476D01*
X176593Y173346D01*
X176565Y173180D01*
X176537Y173004D01*
X176528Y172810D01*
Y172717D01*
X176537Y172662D01*
Y172579D01*
X176547Y172496D01*
X176584Y172292D01*
X176630Y172070D01*
X176704Y171858D01*
X176806Y171654D01*
X176870Y171562D01*
X176944Y171479D01*
X176954Y171469D01*
X176963Y171460D01*
X176991Y171442D01*
X177027Y171414D01*
X177083Y171386D01*
X177138Y171349D01*
X177222Y171312D01*
X177305Y171275D01*
X177407Y171238D01*
X177527Y171210D01*
X177665Y171173D01*
X177813Y171146D01*
X177980Y171118D01*
X178155Y171100D01*
X178359Y171081D01*
X178571D01*
X182270D01*
Y170231D01*
X178571D01*
X178562D01*
X178525D01*
X178479D01*
X178414D01*
X178331Y170240D01*
X178239D01*
X178128Y170249D01*
X178017Y170258D01*
X177767Y170286D01*
X177508Y170323D01*
X177259Y170378D01*
X177138Y170415D01*
X177027Y170452D01*
X177018D01*
X177000Y170462D01*
X176972Y170480D01*
X176935Y170499D01*
X176833Y170554D01*
X176704Y170637D01*
X176556Y170748D01*
X176408Y170878D01*
X176251Y171044D01*
X176112Y171248D01*
Y171257D01*
X176094Y171275D01*
X176084Y171303D01*
X176057Y171349D01*
X176029Y171405D01*
X176001Y171479D01*
X175973Y171553D01*
X175937Y171645D01*
X175900Y171747D01*
X175872Y171858D01*
X175844Y171978D01*
X175816Y172117D01*
X175798Y172255D01*
X175779Y172403D01*
X175761Y172736D01*
Y172819D01*
X175770Y172884D01*
Y172958D01*
X175779Y173050D01*
X175788Y173152D01*
X175798Y173254D01*
X175835Y173485D01*
X175890Y173735D01*
X175964Y173975D01*
X176066Y174206D01*
Y174215D01*
X176084Y174234D01*
X176103Y174262D01*
X176121Y174298D01*
X176195Y174400D01*
X176297Y174520D01*
X176427Y174659D01*
X176574Y174789D01*
X176759Y174918D01*
X176963Y175020D01*
X176972D01*
X176991Y175029D01*
X177027Y175038D01*
X177074Y175057D01*
X177129Y175075D01*
X177203Y175094D01*
X177286Y175121D01*
X177388Y175140D01*
X177499Y175158D01*
X177619Y175186D01*
X177749Y175205D01*
X177887Y175223D01*
X178044Y175242D01*
X178211Y175251D01*
X178387Y175260D01*
X178571D01*
X182270D01*
Y174410D01*
D02*
G37*
G36*
X180689Y168529D02*
X180707Y168511D01*
X180716Y168474D01*
X180744Y168428D01*
X180772Y168372D01*
X180809Y168307D01*
X180901Y168150D01*
X181003Y167965D01*
X181133Y167780D01*
X181280Y167586D01*
X181438Y167392D01*
X181447Y167383D01*
X181456Y167374D01*
X181484Y167346D01*
X181512Y167309D01*
X181604Y167226D01*
X181715Y167115D01*
X181844Y167004D01*
X181992Y166884D01*
X182140Y166782D01*
X182297Y166689D01*
Y166181D01*
X175872D01*
Y166967D01*
X180874D01*
X180864Y166976D01*
X180827Y167022D01*
X180772Y167078D01*
X180707Y167170D01*
X180624Y167272D01*
X180532Y167401D01*
X180430Y167549D01*
X180328Y167716D01*
Y167725D01*
X180319Y167734D01*
X180282Y167790D01*
X180236Y167882D01*
X180180Y167993D01*
X180116Y168123D01*
X180051Y168261D01*
X179986Y168400D01*
X179931Y168538D01*
X180689D01*
Y168529D01*
D02*
G37*
G36*
X490036Y80713D02*
X490026D01*
X490008D01*
X489971D01*
X489915Y80703D01*
X489860Y80694D01*
X489795D01*
X489638Y80667D01*
X489472Y80639D01*
X489305Y80583D01*
X489157Y80528D01*
X489092Y80491D01*
X489037Y80445D01*
X489028Y80435D01*
X489000Y80398D01*
X488954Y80343D01*
X488908Y80269D01*
X488852Y80167D01*
X488815Y80056D01*
X488778Y79918D01*
X488769Y79770D01*
Y79714D01*
X488778Y79659D01*
X488787Y79576D01*
X488806Y79492D01*
X488824Y79400D01*
X488861Y79307D01*
X488908Y79215D01*
X488917Y79206D01*
X488935Y79178D01*
X488972Y79141D01*
X489009Y79085D01*
X489074Y79039D01*
X489139Y78984D01*
X489213Y78938D01*
X489305Y78901D01*
X489314D01*
X489351Y78882D01*
X489416Y78873D01*
X489499Y78854D01*
X489610Y78836D01*
X489749Y78827D01*
X489915Y78808D01*
X490109D01*
X494520D01*
Y77958D01*
X490156D01*
X490146D01*
X490119D01*
X490082D01*
X490026D01*
X489952Y77967D01*
X489878D01*
X489703Y77985D01*
X489499Y78004D01*
X489287Y78041D01*
X489092Y78096D01*
X488908Y78161D01*
X488898D01*
X488889Y78170D01*
X488834Y78198D01*
X488760Y78244D01*
X488658Y78309D01*
X488556Y78401D01*
X488445Y78503D01*
X488334Y78632D01*
X488242Y78780D01*
X488233Y78799D01*
X488205Y78854D01*
X488168Y78938D01*
X488131Y79058D01*
X488085Y79206D01*
X488048Y79372D01*
X488020Y79557D01*
X488011Y79760D01*
Y79844D01*
X488020Y79899D01*
X488029Y79973D01*
X488038Y80047D01*
X488075Y80241D01*
X488131Y80445D01*
X488214Y80657D01*
X488270Y80768D01*
X488334Y80870D01*
X488408Y80962D01*
X488492Y81055D01*
X488501Y81064D01*
X488510Y81073D01*
X488547Y81092D01*
X488584Y81119D01*
X488630Y81157D01*
X488695Y81194D01*
X488769Y81230D01*
X488852Y81277D01*
X488945Y81314D01*
X489055Y81351D01*
X489166Y81388D01*
X489296Y81425D01*
X489435Y81443D01*
X489592Y81471D01*
X489749Y81480D01*
X489925D01*
X490036Y80713D01*
D02*
G37*
G36*
X489860Y76071D02*
X489851D01*
X489832D01*
X489804Y76062D01*
X489758Y76053D01*
X489656Y76025D01*
X489518Y75988D01*
X489379Y75933D01*
X489222Y75859D01*
X489083Y75766D01*
X488954Y75655D01*
X488945Y75637D01*
X488908Y75600D01*
X488861Y75526D01*
X488806Y75424D01*
X488750Y75313D01*
X488704Y75175D01*
X488667Y75017D01*
X488658Y74842D01*
Y74786D01*
X488667Y74749D01*
X488676Y74638D01*
X488713Y74509D01*
X488760Y74352D01*
X488834Y74195D01*
X488945Y74028D01*
X489009Y73954D01*
X489083Y73880D01*
X489092Y73871D01*
X489102Y73862D01*
X489129Y73843D01*
X489157Y73815D01*
X489259Y73751D01*
X489388Y73677D01*
X489546Y73612D01*
X489740Y73547D01*
X489971Y73501D01*
X490091Y73483D01*
X490220D01*
X490230D01*
X490248D01*
X490285D01*
X490331Y73492D01*
X490387D01*
X490452Y73501D01*
X490600Y73529D01*
X490775Y73575D01*
X490951Y73640D01*
X491117Y73732D01*
X491274Y73862D01*
X491284D01*
X491293Y73880D01*
X491339Y73926D01*
X491404Y74010D01*
X491478Y74121D01*
X491543Y74268D01*
X491607Y74435D01*
X491654Y74629D01*
X491672Y74740D01*
Y74916D01*
X491663Y74990D01*
X491654Y75082D01*
X491626Y75193D01*
X491598Y75304D01*
X491552Y75424D01*
X491496Y75544D01*
X491487Y75554D01*
X491469Y75591D01*
X491422Y75646D01*
X491376Y75720D01*
X491311Y75794D01*
X491228Y75868D01*
X491145Y75951D01*
X491043Y76016D01*
X491145Y76756D01*
X494436Y76136D01*
Y72956D01*
X493688D01*
Y75517D01*
X491959Y75859D01*
X491968Y75849D01*
X491977Y75831D01*
X491996Y75803D01*
X492023Y75757D01*
X492051Y75702D01*
X492088Y75637D01*
X492162Y75489D01*
X492236Y75304D01*
X492301Y75101D01*
X492347Y74879D01*
X492365Y74768D01*
Y74564D01*
X492356Y74509D01*
X492347Y74435D01*
X492338Y74352D01*
X492319Y74259D01*
X492291Y74158D01*
X492227Y73936D01*
X492180Y73815D01*
X492116Y73695D01*
X492051Y73575D01*
X491977Y73455D01*
X491885Y73344D01*
X491783Y73233D01*
X491774Y73224D01*
X491755Y73205D01*
X491727Y73178D01*
X491681Y73141D01*
X491617Y73094D01*
X491552Y73048D01*
X491469Y72993D01*
X491376Y72937D01*
X491274Y72891D01*
X491163Y72835D01*
X491034Y72789D01*
X490905Y72743D01*
X490766Y72706D01*
X490609Y72678D01*
X490452Y72660D01*
X490285Y72651D01*
X490276D01*
X490248D01*
X490202D01*
X490137Y72660D01*
X490063Y72669D01*
X489980Y72678D01*
X489878Y72697D01*
X489777Y72715D01*
X489536Y72771D01*
X489287Y72863D01*
X489157Y72919D01*
X489037Y72993D01*
X488908Y73067D01*
X488787Y73159D01*
X488778Y73168D01*
X488750Y73187D01*
X488713Y73224D01*
X488667Y73270D01*
X488612Y73335D01*
X488538Y73409D01*
X488473Y73501D01*
X488399Y73603D01*
X488325Y73714D01*
X488260Y73843D01*
X488196Y73982D01*
X488131Y74130D01*
X488085Y74287D01*
X488048Y74463D01*
X488020Y74648D01*
X488011Y74842D01*
Y74925D01*
X488020Y74990D01*
X488029Y75064D01*
X488038Y75147D01*
X488048Y75249D01*
X488075Y75350D01*
X488131Y75581D01*
X488214Y75813D01*
X488270Y75933D01*
X488334Y76053D01*
X488408Y76164D01*
X488492Y76275D01*
X488501Y76284D01*
X488510Y76303D01*
X488547Y76321D01*
X488584Y76358D01*
X488630Y76404D01*
X488686Y76451D01*
X488760Y76506D01*
X488843Y76552D01*
X488926Y76608D01*
X489028Y76663D01*
X489250Y76765D01*
X489509Y76848D01*
X489647Y76876D01*
X489795Y76894D01*
X489860Y76071D01*
D02*
G37*
G36*
X64069Y342853D02*
X64144Y342844D01*
X64236Y342835D01*
X64338Y342816D01*
X64439Y342798D01*
X64680Y342733D01*
X64920Y342641D01*
X65040Y342585D01*
X65160Y342520D01*
X65272Y342437D01*
X65373Y342345D01*
X65382Y342336D01*
X65401Y342326D01*
X65419Y342289D01*
X65456Y342252D01*
X65503Y342206D01*
X65549Y342141D01*
X65595Y342077D01*
X65651Y341993D01*
X65743Y341818D01*
X65835Y341596D01*
X65872Y341485D01*
X65891Y341356D01*
X65909Y341226D01*
X65919Y341087D01*
Y341069D01*
Y341023D01*
X65909Y340949D01*
X65900Y340847D01*
X65882Y340736D01*
X65845Y340607D01*
X65808Y340468D01*
X65752Y340329D01*
X65743Y340311D01*
X65725Y340265D01*
X65687Y340191D01*
X65632Y340089D01*
X65558Y339978D01*
X65466Y339839D01*
X65355Y339701D01*
X65225Y339543D01*
X65207Y339525D01*
X65160Y339469D01*
X65114Y339423D01*
X65068Y339377D01*
X65013Y339321D01*
X64939Y339248D01*
X64865Y339174D01*
X64772Y339090D01*
X64680Y338998D01*
X64569Y338896D01*
X64449Y338794D01*
X64319Y338674D01*
X64171Y338554D01*
X64023Y338425D01*
X64014Y338415D01*
X63996Y338397D01*
X63959Y338369D01*
X63912Y338332D01*
X63857Y338277D01*
X63792Y338221D01*
X63644Y338101D01*
X63487Y337962D01*
X63339Y337824D01*
X63210Y337704D01*
X63154Y337657D01*
X63108Y337611D01*
X63099Y337602D01*
X63071Y337574D01*
X63034Y337537D01*
X62988Y337482D01*
X62942Y337417D01*
X62886Y337352D01*
X62775Y337195D01*
X65928D01*
Y336437D01*
X61684D01*
Y336446D01*
Y336483D01*
Y336539D01*
X61693Y336613D01*
X61703Y336696D01*
X61721Y336788D01*
X61740Y336881D01*
X61777Y336982D01*
Y336992D01*
X61786Y337001D01*
X61804Y337056D01*
X61841Y337140D01*
X61897Y337250D01*
X61971Y337380D01*
X62063Y337528D01*
X62165Y337676D01*
X62294Y337833D01*
Y337842D01*
X62313Y337851D01*
X62359Y337907D01*
X62442Y337990D01*
X62562Y338110D01*
X62701Y338249D01*
X62877Y338415D01*
X63089Y338600D01*
X63321Y338794D01*
X63330Y338804D01*
X63367Y338831D01*
X63422Y338878D01*
X63487Y338933D01*
X63570Y339007D01*
X63672Y339090D01*
X63774Y339183D01*
X63894Y339285D01*
X64125Y339506D01*
X64356Y339728D01*
X64467Y339839D01*
X64569Y339950D01*
X64661Y340052D01*
X64735Y340154D01*
Y340163D01*
X64754Y340172D01*
X64772Y340200D01*
X64791Y340237D01*
X64855Y340339D01*
X64929Y340459D01*
X64994Y340607D01*
X65059Y340764D01*
X65096Y340939D01*
X65114Y341106D01*
Y341115D01*
Y341124D01*
X65105Y341180D01*
X65096Y341272D01*
X65068Y341374D01*
X65031Y341503D01*
X64966Y341633D01*
X64883Y341762D01*
X64772Y341892D01*
X64754Y341910D01*
X64707Y341947D01*
X64643Y341993D01*
X64541Y342058D01*
X64412Y342114D01*
X64264Y342169D01*
X64088Y342206D01*
X63894Y342215D01*
X63838D01*
X63801Y342206D01*
X63691Y342197D01*
X63561Y342169D01*
X63422Y342132D01*
X63265Y342067D01*
X63117Y341984D01*
X62979Y341873D01*
X62960Y341855D01*
X62923Y341809D01*
X62868Y341735D01*
X62812Y341624D01*
X62747Y341494D01*
X62692Y341328D01*
X62655Y341143D01*
X62636Y340930D01*
X61832Y341013D01*
Y341023D01*
X61841Y341050D01*
Y341097D01*
X61851Y341161D01*
X61869Y341235D01*
X61888Y341319D01*
X61915Y341420D01*
X61943Y341522D01*
X62017Y341744D01*
X62128Y341966D01*
X62193Y342077D01*
X62276Y342188D01*
X62359Y342289D01*
X62452Y342382D01*
X62461Y342391D01*
X62479Y342400D01*
X62507Y342428D01*
X62553Y342456D01*
X62609Y342493D01*
X62674Y342530D01*
X62747Y342576D01*
X62840Y342622D01*
X62942Y342668D01*
X63053Y342715D01*
X63173Y342752D01*
X63302Y342789D01*
X63441Y342816D01*
X63589Y342844D01*
X63746Y342853D01*
X63912Y342863D01*
X64005D01*
X64069Y342853D01*
D02*
G37*
G36*
X58069Y342937D02*
X58152D01*
X58236Y342927D01*
X58347Y342909D01*
X58457Y342890D01*
X58698Y342844D01*
X58975Y342770D01*
X59243Y342659D01*
X59382Y342594D01*
X59521Y342520D01*
X59530Y342511D01*
X59548Y342502D01*
X59585Y342474D01*
X59641Y342447D01*
X59696Y342400D01*
X59770Y342345D01*
X59928Y342215D01*
X60094Y342049D01*
X60279Y341846D01*
X60455Y341605D01*
X60602Y341337D01*
Y341328D01*
X60621Y341300D01*
X60639Y341263D01*
X60658Y341208D01*
X60695Y341134D01*
X60723Y341050D01*
X60760Y340949D01*
X60797Y340838D01*
X60824Y340718D01*
X60861Y340588D01*
X60898Y340449D01*
X60926Y340302D01*
X60963Y339978D01*
X60981Y339636D01*
Y339627D01*
Y339599D01*
Y339562D01*
Y339506D01*
X60972Y339432D01*
Y339349D01*
X60963Y339257D01*
X60954Y339164D01*
X60926Y338942D01*
X60880Y338702D01*
X60824Y338452D01*
X60741Y338212D01*
Y338203D01*
X60732Y338184D01*
X60713Y338147D01*
X60695Y338110D01*
X60667Y338055D01*
X60639Y337990D01*
X60566Y337842D01*
X60464Y337667D01*
X60334Y337482D01*
X60186Y337297D01*
X60020Y337112D01*
X60029D01*
X60048Y337093D01*
X60075Y337075D01*
X60122Y337047D01*
X60168Y337010D01*
X60233Y336973D01*
X60371Y336890D01*
X60538Y336788D01*
X60723Y336686D01*
X60917Y336603D01*
X61102Y336520D01*
X60852Y335938D01*
X60843D01*
X60824Y335947D01*
X60787Y335965D01*
X60732Y335984D01*
X60667Y336012D01*
X60593Y336049D01*
X60510Y336086D01*
X60417Y336132D01*
X60214Y336243D01*
X59983Y336372D01*
X59733Y336539D01*
X59475Y336723D01*
X59465D01*
X59447Y336705D01*
X59401Y336686D01*
X59354Y336659D01*
X59280Y336631D01*
X59206Y336594D01*
X59114Y336566D01*
X59012Y336529D01*
X58901Y336492D01*
X58781Y336455D01*
X58513Y336391D01*
X58217Y336344D01*
X58060Y336335D01*
X57903Y336326D01*
X57819D01*
X57755Y336335D01*
X57681D01*
X57588Y336344D01*
X57487Y336363D01*
X57376Y336381D01*
X57135Y336428D01*
X56867Y336502D01*
X56590Y336603D01*
X56460Y336668D01*
X56322Y336742D01*
X56312Y336751D01*
X56294Y336760D01*
X56257Y336788D01*
X56211Y336816D01*
X56146Y336862D01*
X56081Y336918D01*
X55924Y337047D01*
X55749Y337213D01*
X55573Y337417D01*
X55397Y337648D01*
X55240Y337916D01*
Y337925D01*
X55222Y337953D01*
X55203Y337990D01*
X55184Y338046D01*
X55157Y338120D01*
X55120Y338203D01*
X55083Y338304D01*
X55055Y338415D01*
X55018Y338536D01*
X54981Y338665D01*
X54953Y338804D01*
X54916Y338961D01*
X54879Y339285D01*
X54861Y339627D01*
Y339636D01*
Y339673D01*
Y339719D01*
X54870Y339784D01*
Y339867D01*
X54879Y339969D01*
X54889Y340080D01*
X54907Y340200D01*
X54953Y340468D01*
X55018Y340755D01*
X55111Y341060D01*
X55240Y341356D01*
X55249Y341365D01*
X55258Y341393D01*
X55277Y341429D01*
X55314Y341485D01*
X55351Y341550D01*
X55397Y341624D01*
X55527Y341799D01*
X55675Y341984D01*
X55869Y342178D01*
X56081Y342373D01*
X56331Y342539D01*
X56340Y342548D01*
X56368Y342557D01*
X56405Y342576D01*
X56460Y342604D01*
X56525Y342631D01*
X56599Y342668D01*
X56692Y342705D01*
X56793Y342742D01*
X56913Y342779D01*
X57034Y342816D01*
X57302Y342881D01*
X57598Y342927D01*
X57755Y342946D01*
X58004D01*
X58069Y342937D01*
D02*
G37*
%LPC*%
G36*
X419551Y342215D02*
X419459D01*
X419394Y342206D01*
X419311Y342197D01*
X419218Y342178D01*
X419117Y342160D01*
X419006Y342132D01*
X418876Y342095D01*
X418756Y342058D01*
X418627Y342003D01*
X418488Y341938D01*
X418358Y341864D01*
X418229Y341772D01*
X418100Y341679D01*
X417980Y341559D01*
X417970Y341550D01*
X417952Y341531D01*
X417924Y341494D01*
X417887Y341439D01*
X417831Y341374D01*
X417785Y341291D01*
X417730Y341189D01*
X417674Y341078D01*
X417610Y340949D01*
X417554Y340801D01*
X417508Y340644D01*
X417462Y340468D01*
X417416Y340283D01*
X417388Y340080D01*
X417369Y339858D01*
X417360Y339627D01*
Y339608D01*
Y339571D01*
Y339506D01*
X417369Y339423D01*
X417379Y339321D01*
X417397Y339201D01*
X417416Y339063D01*
X417434Y338924D01*
X417508Y338610D01*
X417554Y338452D01*
X417619Y338295D01*
X417684Y338138D01*
X417767Y337990D01*
X417859Y337842D01*
X417970Y337713D01*
X417980Y337704D01*
X417998Y337685D01*
X418035Y337648D01*
X418081Y337611D01*
X418146Y337556D01*
X418220Y337500D01*
X418303Y337445D01*
X418405Y337380D01*
X418507Y337315D01*
X418627Y337260D01*
X418756Y337204D01*
X418895Y337149D01*
X419052Y337112D01*
X419209Y337075D01*
X419376Y337056D01*
X419551Y337047D01*
X419634D01*
X419718Y337056D01*
X419829Y337066D01*
X419967Y337084D01*
X420106Y337121D01*
X420263Y337158D01*
X420411Y337213D01*
X420393Y337223D01*
X420346Y337260D01*
X420263Y337306D01*
X420161Y337361D01*
X420032Y337417D01*
X419893Y337482D01*
X419736Y337537D01*
X419570Y337583D01*
X419782Y338194D01*
X419792D01*
X419819Y338184D01*
X419856Y338175D01*
X419903Y338157D01*
X419967Y338138D01*
X420041Y338110D01*
X420208Y338046D01*
X420402Y337953D01*
X420605Y337851D01*
X420799Y337731D01*
X420993Y337583D01*
X421003Y337593D01*
X421031Y337611D01*
X421068Y337657D01*
X421114Y337713D01*
X421169Y337787D01*
X421234Y337870D01*
X421299Y337972D01*
X421373Y338092D01*
X421437Y338231D01*
X421502Y338388D01*
X421567Y338554D01*
X421622Y338730D01*
X421678Y338933D01*
X421715Y339146D01*
X421733Y339377D01*
X421742Y339627D01*
Y339636D01*
Y339664D01*
Y339701D01*
Y339756D01*
X421733Y339830D01*
Y339904D01*
X421724Y339996D01*
X421706Y340089D01*
X421678Y340302D01*
X421632Y340533D01*
X421567Y340764D01*
X421474Y340986D01*
Y340995D01*
X421465Y341013D01*
X421447Y341041D01*
X421428Y341078D01*
X421363Y341189D01*
X421280Y341319D01*
X421169Y341466D01*
X421031Y341614D01*
X420873Y341762D01*
X420698Y341892D01*
X420688D01*
X420679Y341910D01*
X420652Y341920D01*
X420605Y341947D01*
X420559Y341966D01*
X420504Y341993D01*
X420365Y342058D01*
X420198Y342114D01*
X420004Y342169D01*
X419782Y342206D01*
X419551Y342215D01*
D02*
G37*
G36*
X268852Y447286D02*
X268796D01*
X268759Y447277D01*
X268667Y447268D01*
X268537Y447240D01*
X268399Y447194D01*
X268242Y447120D01*
X268094Y447028D01*
X267946Y446898D01*
X267927Y446880D01*
X267890Y446833D01*
X267826Y446750D01*
X267761Y446630D01*
X267696Y446491D01*
X267631Y446316D01*
X267594Y446121D01*
X267576Y445900D01*
Y445881D01*
Y445835D01*
X267585Y445752D01*
X267594Y445650D01*
X267613Y445530D01*
X267650Y445400D01*
X267687Y445262D01*
X267742Y445123D01*
X267752Y445104D01*
X267779Y445058D01*
X267816Y444993D01*
X267872Y444910D01*
X267936Y444827D01*
X268020Y444725D01*
X268112Y444642D01*
X268223Y444559D01*
X268242Y444550D01*
X268279Y444531D01*
X268343Y444494D01*
X268426Y444466D01*
X268519Y444430D01*
X268630Y444393D01*
X268750Y444374D01*
X268880Y444365D01*
X268926D01*
X268963Y444374D01*
X269055Y444383D01*
X269175Y444411D01*
X269305Y444466D01*
X269453Y444531D01*
X269601Y444633D01*
X269675Y444688D01*
X269739Y444762D01*
Y444772D01*
X269758Y444781D01*
X269795Y444836D01*
X269850Y444929D01*
X269924Y445049D01*
X269989Y445206D01*
X270044Y445391D01*
X270081Y445604D01*
X270100Y445853D01*
Y445863D01*
Y445881D01*
Y445918D01*
X270091Y445964D01*
Y446020D01*
X270081Y446084D01*
X270054Y446232D01*
X270017Y446399D01*
X269952Y446574D01*
X269860Y446741D01*
X269739Y446898D01*
X269721Y446917D01*
X269675Y446963D01*
X269601Y447018D01*
X269499Y447092D01*
X269370Y447166D01*
X269222Y447222D01*
X269046Y447268D01*
X268852Y447286D01*
D02*
G37*
G36*
X490548Y186685D02*
Y184669D01*
X493414D01*
X490548Y186685D01*
D02*
G37*
G36*
X57921Y342215D02*
X57829D01*
X57764Y342206D01*
X57681Y342197D01*
X57588Y342178D01*
X57487Y342160D01*
X57376Y342132D01*
X57246Y342095D01*
X57126Y342058D01*
X56997Y342003D01*
X56858Y341938D01*
X56729Y341864D01*
X56599Y341772D01*
X56470Y341679D01*
X56350Y341559D01*
X56340Y341550D01*
X56322Y341531D01*
X56294Y341494D01*
X56257Y341439D01*
X56202Y341374D01*
X56155Y341291D01*
X56100Y341189D01*
X56044Y341078D01*
X55980Y340949D01*
X55924Y340801D01*
X55878Y340644D01*
X55832Y340468D01*
X55785Y340283D01*
X55758Y340080D01*
X55739Y339858D01*
X55730Y339627D01*
Y339608D01*
Y339571D01*
Y339506D01*
X55739Y339423D01*
X55749Y339321D01*
X55767Y339201D01*
X55785Y339063D01*
X55804Y338924D01*
X55878Y338610D01*
X55924Y338452D01*
X55989Y338295D01*
X56054Y338138D01*
X56137Y337990D01*
X56229Y337842D01*
X56340Y337713D01*
X56350Y337704D01*
X56368Y337685D01*
X56405Y337648D01*
X56451Y337611D01*
X56516Y337556D01*
X56590Y337500D01*
X56673Y337445D01*
X56775Y337380D01*
X56877Y337315D01*
X56997Y337260D01*
X57126Y337204D01*
X57265Y337149D01*
X57422Y337112D01*
X57579Y337075D01*
X57746Y337056D01*
X57921Y337047D01*
X58004D01*
X58088Y337056D01*
X58199Y337066D01*
X58337Y337084D01*
X58476Y337121D01*
X58633Y337158D01*
X58781Y337213D01*
X58763Y337223D01*
X58716Y337260D01*
X58633Y337306D01*
X58531Y337361D01*
X58402Y337417D01*
X58263Y337482D01*
X58106Y337537D01*
X57940Y337583D01*
X58152Y338194D01*
X58162D01*
X58189Y338184D01*
X58226Y338175D01*
X58273Y338157D01*
X58337Y338138D01*
X58411Y338110D01*
X58578Y338046D01*
X58772Y337953D01*
X58975Y337851D01*
X59169Y337731D01*
X59363Y337583D01*
X59373Y337593D01*
X59401Y337611D01*
X59437Y337657D01*
X59484Y337713D01*
X59539Y337787D01*
X59604Y337870D01*
X59669Y337972D01*
X59743Y338092D01*
X59807Y338231D01*
X59872Y338388D01*
X59937Y338554D01*
X59992Y338730D01*
X60048Y338933D01*
X60085Y339146D01*
X60103Y339377D01*
X60112Y339627D01*
Y339636D01*
Y339664D01*
Y339701D01*
Y339756D01*
X60103Y339830D01*
Y339904D01*
X60094Y339996D01*
X60075Y340089D01*
X60048Y340302D01*
X60002Y340533D01*
X59937Y340764D01*
X59844Y340986D01*
Y340995D01*
X59835Y341013D01*
X59817Y341041D01*
X59798Y341078D01*
X59733Y341189D01*
X59650Y341319D01*
X59539Y341466D01*
X59401Y341614D01*
X59243Y341762D01*
X59068Y341892D01*
X59058D01*
X59049Y341910D01*
X59021Y341920D01*
X58975Y341947D01*
X58929Y341966D01*
X58874Y341993D01*
X58735Y342058D01*
X58568Y342114D01*
X58374Y342169D01*
X58152Y342206D01*
X57921Y342215D01*
D02*
G37*
%LPD*%
D11*
X516491Y262790D02*
Y338790D01*
X456991Y262790D02*
X516491D01*
X456991D02*
Y338790D01*
X516491D01*
X392741Y393320D02*
X440241D01*
Y282320D02*
Y393320D01*
X392741Y282320D02*
X440241D01*
X392741D02*
Y393320D01*
X211621Y415850D02*
Y475350D01*
Y415850D02*
X312621D01*
Y475350D01*
X211621D02*
X312621D01*
X102801Y417120D02*
Y476620D01*
Y417120D02*
X203801D01*
Y476620D01*
X102801D02*
X203801D01*
X517931Y153770D02*
Y229770D01*
X458431Y153770D02*
X517931D01*
X458431D02*
Y229770D01*
X517931D01*
X134151Y104510D02*
X210151D01*
Y45010D02*
Y104510D01*
X134151Y45010D02*
X210151D01*
X134151D02*
Y104510D01*
X36361Y103240D02*
X112361D01*
Y43740D02*
Y103240D01*
X36361Y43740D02*
X112361D01*
X36361D02*
Y103240D01*
X228831Y127810D02*
Y222710D01*
X122691Y127810D02*
X228831D01*
X122691D02*
Y222710D01*
X228831D01*
X517761Y43480D02*
Y119480D01*
X458261Y43480D02*
X517761D01*
X458261D02*
Y119480D01*
X517761D01*
X29711Y283070D02*
Y392570D01*
Y283070D02*
X80011D01*
Y392570D01*
X29711D02*
X80011D01*
M02*
