G04*
G04 #@! TF.GenerationSoftware,Altium Limited,Altium Designer,23.6.0 (18)*
G04*
G04 Layer_Physical_Order=2*
G04 Layer_Color=16711680*
%FSLAX44Y44*%
%MOMM*%
G71*
G04*
G04 #@! TF.SameCoordinates,C98FF4F9-6FCD-44A5-A41D-EB2AB3F7E161*
G04*
G04*
G04 #@! TF.FilePolarity,Positive*
G04*
G01*
G75*
%ADD12C,0.2540*%
%ADD15R,1.5500X1.5500*%
%ADD16C,1.5500*%
%ADD17R,1.8500X1.8500*%
%ADD18C,1.8500*%
%ADD21C,1.4000*%
%ADD22R,1.4000X1.4000*%
%ADD25R,1.5500X1.5500*%
%ADD26R,1.3500X1.3500*%
%ADD27C,1.3500*%
%ADD33C,2.0000*%
%ADD34R,2.0000X2.0000*%
%ADD36C,0.5000*%
%ADD37C,0.3000*%
%ADD38R,1.3500X1.3500*%
%ADD39R,1.6000X1.6000*%
%ADD40C,1.6000*%
%ADD41C,1.3000*%
%ADD42R,1.3000X1.3000*%
%ADD43C,1.7000*%
%ADD44R,1.7000X1.7000*%
%ADD45C,4.0000*%
G36*
X579621Y0D02*
X501D01*
Y487680D01*
X708Y488181D01*
X579621D01*
Y0D01*
D02*
G37*
%LPC*%
G36*
X403047Y458870D02*
X402626D01*
Y451485D01*
X410011D01*
Y451906D01*
X409464Y453946D01*
X408409Y455774D01*
X406915Y457268D01*
X405087Y458324D01*
X403047Y458870D01*
D02*
G37*
G36*
X401356D02*
X400935D01*
X398895Y458324D01*
X397066Y457268D01*
X395573Y455774D01*
X394517Y453946D01*
X393971Y451906D01*
Y451485D01*
X401356D01*
Y458870D01*
D02*
G37*
G36*
X179390Y460390D02*
X177212D01*
X175109Y459826D01*
X173223Y458738D01*
X171683Y457198D01*
X170595Y455312D01*
X170031Y453209D01*
Y451031D01*
X170595Y448928D01*
X171683Y447042D01*
X173223Y445502D01*
X175109Y444414D01*
X177212Y443850D01*
X179390D01*
X181493Y444414D01*
X183379Y445502D01*
X184919Y447042D01*
X186007Y448928D01*
X186571Y451031D01*
Y453209D01*
X186007Y455312D01*
X184919Y457198D01*
X183379Y458738D01*
X181493Y459826D01*
X179390Y460390D01*
D02*
G37*
G36*
X154390D02*
X152212D01*
X150109Y459826D01*
X148223Y458738D01*
X146683Y457198D01*
X145595Y455312D01*
X145031Y453209D01*
Y451031D01*
X145595Y448928D01*
X146683Y447042D01*
X148223Y445502D01*
X150109Y444414D01*
X152212Y443850D01*
X154390D01*
X156493Y444414D01*
X158379Y445502D01*
X159919Y447042D01*
X161007Y448928D01*
X161571Y451031D01*
Y453209D01*
X161007Y455312D01*
X159919Y457198D01*
X158379Y458738D01*
X156493Y459826D01*
X154390Y460390D01*
D02*
G37*
G36*
X136571D02*
X120031D01*
Y443850D01*
X136571D01*
Y460390D01*
D02*
G37*
G36*
X410011Y450215D02*
X402626D01*
Y442830D01*
X403047D01*
X405087Y443377D01*
X406915Y444432D01*
X408409Y445926D01*
X409464Y447754D01*
X410011Y449794D01*
Y450215D01*
D02*
G37*
G36*
X401356D02*
X393971D01*
Y449794D01*
X394517Y447754D01*
X395573Y445926D01*
X397066Y444432D01*
X398895Y443377D01*
X400935Y442830D01*
X401356D01*
Y450215D01*
D02*
G37*
G36*
X288210Y459120D02*
X286032D01*
X283929Y458556D01*
X282043Y457468D01*
X280503Y455928D01*
X279415Y454042D01*
X278851Y451939D01*
Y449761D01*
X279415Y447658D01*
X280503Y445772D01*
X282043Y444232D01*
X283929Y443144D01*
X286032Y442580D01*
X288210D01*
X290313Y443144D01*
X292199Y444232D01*
X293739Y445772D01*
X294827Y447658D01*
X295391Y449761D01*
Y451939D01*
X294827Y454042D01*
X293739Y455928D01*
X292199Y457468D01*
X290313Y458556D01*
X288210Y459120D01*
D02*
G37*
G36*
X263210D02*
X261032D01*
X258929Y458556D01*
X257043Y457468D01*
X255503Y455928D01*
X254415Y454042D01*
X253851Y451939D01*
Y449761D01*
X254415Y447658D01*
X255503Y445772D01*
X257043Y444232D01*
X258929Y443144D01*
X261032Y442580D01*
X263210D01*
X265313Y443144D01*
X267199Y444232D01*
X268739Y445772D01*
X269827Y447658D01*
X270391Y449761D01*
Y451939D01*
X269827Y454042D01*
X268739Y455928D01*
X267199Y457468D01*
X265313Y458556D01*
X263210Y459120D01*
D02*
G37*
G36*
X245391D02*
X228851D01*
Y442580D01*
X245391D01*
Y459120D01*
D02*
G37*
G36*
X411281Y427120D02*
X403896D01*
Y419735D01*
X411281D01*
Y427120D01*
D02*
G37*
G36*
X402626D02*
X395241D01*
Y419735D01*
X402626D01*
Y427120D01*
D02*
G37*
G36*
X411281Y418465D02*
X403896D01*
Y411080D01*
X411281D01*
Y418465D01*
D02*
G37*
G36*
X402626D02*
X395241D01*
Y411080D01*
X402626D01*
Y418465D01*
D02*
G37*
G36*
X151417Y390840D02*
X149305D01*
X147265Y390294D01*
X145436Y389238D01*
X143943Y387744D01*
X142887Y385916D01*
X142815Y385644D01*
X119011D01*
Y390840D01*
X102971D01*
Y385644D01*
X68361D01*
X68361Y385644D01*
X67280Y385429D01*
X66364Y384817D01*
X66364Y384817D01*
X56037Y374490D01*
X37491D01*
Y351950D01*
X60031D01*
Y370496D01*
X69531Y379996D01*
X102971D01*
Y374800D01*
X119011D01*
Y379996D01*
X142815D01*
X142887Y379724D01*
X143943Y377896D01*
X145436Y376402D01*
X147265Y375346D01*
X149305Y374800D01*
X151417D01*
X153456Y375346D01*
X155285Y376402D01*
X156779Y377896D01*
X157834Y379724D01*
X158381Y381764D01*
Y383876D01*
X157834Y385916D01*
X156779Y387744D01*
X155285Y389238D01*
X153456Y390294D01*
X151417Y390840D01*
D02*
G37*
G36*
X225077D02*
X222965D01*
X220925Y390294D01*
X219097Y389238D01*
X217603Y387744D01*
X216548Y385916D01*
X216305Y385009D01*
X195724D01*
X194879Y386474D01*
X193385Y387968D01*
X191556Y389024D01*
X189517Y389570D01*
X187405D01*
X185365Y389024D01*
X183536Y387968D01*
X182043Y386474D01*
X180987Y384646D01*
X180441Y382606D01*
Y380494D01*
X180987Y378454D01*
X182043Y376626D01*
X183536Y375132D01*
X185365Y374076D01*
X187405Y373530D01*
X189517D01*
X191556Y374076D01*
X193385Y375132D01*
X194879Y376626D01*
X195934Y378454D01*
X196177Y379361D01*
X216757D01*
X217603Y377896D01*
X219097Y376402D01*
X220925Y375346D01*
X222965Y374800D01*
X225077D01*
X227117Y375346D01*
X228945Y376402D01*
X230439Y377896D01*
X231494Y379724D01*
X232041Y381764D01*
Y383876D01*
X231494Y385916D01*
X230439Y387744D01*
X228945Y389238D01*
X227117Y390294D01*
X225077Y390840D01*
D02*
G37*
G36*
X259367Y391560D02*
X257255D01*
X255215Y391013D01*
X253386Y389958D01*
X251893Y388464D01*
X250837Y386636D01*
X250291Y384596D01*
Y382484D01*
X250837Y380444D01*
X251893Y378616D01*
X253386Y377122D01*
X255215Y376067D01*
X257255Y375520D01*
X259367D01*
X261406Y376067D01*
X263235Y377122D01*
X264729Y378616D01*
X265574Y380081D01*
X286155D01*
X286397Y379174D01*
X287453Y377346D01*
X288946Y375852D01*
X290775Y374796D01*
X292815Y374250D01*
X294927D01*
X296966Y374796D01*
X298795Y375852D01*
X300289Y377346D01*
X301344Y379174D01*
X301891Y381214D01*
Y383326D01*
X301344Y385366D01*
X300289Y387194D01*
X298795Y388688D01*
X296966Y389743D01*
X294927Y390290D01*
X292815D01*
X290775Y389743D01*
X288946Y388688D01*
X287453Y387194D01*
X286607Y385729D01*
X266027D01*
X265784Y386636D01*
X264729Y388464D01*
X263235Y389958D01*
X261406Y391013D01*
X259367Y391560D01*
D02*
G37*
G36*
X329217Y392110D02*
X327105D01*
X325065Y391563D01*
X323237Y390508D01*
X321743Y389014D01*
X320687Y387186D01*
X320141Y385146D01*
Y383034D01*
X320687Y380994D01*
X321743Y379166D01*
X323237Y377672D01*
X325065Y376617D01*
X327105Y376070D01*
X329217D01*
X331256Y376617D01*
X333085Y377672D01*
X334579Y379166D01*
X335583Y380906D01*
X357348D01*
X357518Y380274D01*
X358573Y378446D01*
X360066Y376952D01*
X361895Y375897D01*
X363935Y375350D01*
X366047D01*
X368087Y375897D01*
X369915Y376952D01*
X371409Y378446D01*
X372464Y380274D01*
X372537Y380546D01*
X388121D01*
X398921Y369746D01*
Y352700D01*
X419961D01*
Y373740D01*
X402915D01*
X391288Y385367D01*
X390372Y385979D01*
X389291Y386194D01*
X389291Y386194D01*
X372537D01*
X372464Y386466D01*
X371409Y388294D01*
X369915Y389788D01*
X368087Y390844D01*
X366047Y391390D01*
X363935D01*
X361895Y390844D01*
X360066Y389788D01*
X358573Y388294D01*
X357569Y386554D01*
X335804D01*
X335634Y387186D01*
X334579Y389014D01*
X333085Y390508D01*
X331256Y391563D01*
X329217Y392110D01*
D02*
G37*
G36*
X410826Y348340D02*
X408056D01*
X405380Y347623D01*
X402981Y346238D01*
X401023Y344279D01*
X399638Y341881D01*
X398921Y339205D01*
Y336435D01*
X399638Y333759D01*
X399750Y333565D01*
X387673Y321488D01*
X386840Y320241D01*
X386547Y318770D01*
X386547Y318770D01*
Y302582D01*
X381179Y297214D01*
X373011D01*
Y301390D01*
X356971D01*
Y285350D01*
X373011D01*
Y289526D01*
X382771D01*
X382771Y289526D01*
X384242Y289819D01*
X385489Y290652D01*
X393109Y298272D01*
X393942Y299519D01*
X394235Y300990D01*
X394235Y300990D01*
Y317178D01*
X405186Y328129D01*
X405380Y328017D01*
X408056Y327300D01*
X410826D01*
X413502Y328017D01*
X415900Y329402D01*
X417859Y331361D01*
X419244Y333759D01*
X419961Y336435D01*
Y339205D01*
X419244Y341881D01*
X417859Y344279D01*
X415900Y346238D01*
X413502Y347623D01*
X410826Y348340D01*
D02*
G37*
G36*
X501011Y322310D02*
X492626D01*
Y313925D01*
X501011D01*
Y322310D01*
D02*
G37*
G36*
X491356D02*
X482971D01*
Y313925D01*
X491356D01*
Y322310D01*
D02*
G37*
G36*
X410826Y322940D02*
X410076D01*
Y313055D01*
X419961D01*
Y313805D01*
X419244Y316481D01*
X417859Y318879D01*
X415900Y320838D01*
X413502Y322223D01*
X410826Y322940D01*
D02*
G37*
G36*
X408806D02*
X408056D01*
X405380Y322223D01*
X402981Y320838D01*
X401023Y318879D01*
X399638Y316481D01*
X398921Y313805D01*
Y313055D01*
X408806D01*
Y322940D01*
D02*
G37*
G36*
X50245Y323690D02*
X49396D01*
Y313055D01*
X60031D01*
Y313904D01*
X59263Y316770D01*
X57779Y319340D01*
X55681Y321438D01*
X53111Y322922D01*
X50245Y323690D01*
D02*
G37*
G36*
X48126D02*
X47277D01*
X44411Y322922D01*
X41841Y321438D01*
X39743Y319340D01*
X38259Y316770D01*
X37491Y313904D01*
Y313055D01*
X48126D01*
Y323690D01*
D02*
G37*
G36*
X501011Y312655D02*
X492626D01*
Y304270D01*
X501011D01*
Y312655D01*
D02*
G37*
G36*
X491356D02*
X482971D01*
Y304270D01*
X491356D01*
Y312655D01*
D02*
G37*
G36*
X419961Y311785D02*
X410076D01*
Y301900D01*
X410826D01*
X413502Y302617D01*
X415900Y304002D01*
X417859Y305961D01*
X419244Y308359D01*
X419961Y311035D01*
Y311785D01*
D02*
G37*
G36*
X408806D02*
X398921D01*
Y311035D01*
X399638Y308359D01*
X401023Y305961D01*
X402981Y304002D01*
X405380Y302617D01*
X408056Y301900D01*
X408806D01*
Y311785D01*
D02*
G37*
G36*
X60031D02*
X49396D01*
Y301150D01*
X50245D01*
X53111Y301918D01*
X55681Y303402D01*
X57779Y305500D01*
X59263Y308070D01*
X60031Y310936D01*
Y311785D01*
D02*
G37*
G36*
X48126D02*
X37491D01*
Y310936D01*
X38259Y308070D01*
X39743Y305500D01*
X41841Y303402D01*
X44411Y301918D01*
X47277Y301150D01*
X48126D01*
Y311785D01*
D02*
G37*
G36*
X329217Y302110D02*
X327105D01*
X325065Y301563D01*
X323237Y300508D01*
X321743Y299014D01*
X320687Y297186D01*
X320371Y296004D01*
X300976D01*
X300289Y297194D01*
X298795Y298688D01*
X296966Y299743D01*
X294927Y300290D01*
X292815D01*
X290775Y299743D01*
X288946Y298688D01*
X287453Y297194D01*
X286397Y295366D01*
X285851Y293326D01*
Y291214D01*
X286397Y289174D01*
X287453Y287346D01*
X288946Y285852D01*
X290775Y284797D01*
X292815Y284250D01*
X294927D01*
X296966Y284797D01*
X298795Y285852D01*
X300289Y287346D01*
X301344Y289174D01*
X301661Y290356D01*
X321056D01*
X321743Y289166D01*
X323237Y287672D01*
X325065Y286616D01*
X327105Y286070D01*
X329217D01*
X331256Y286616D01*
X333085Y287672D01*
X334579Y289166D01*
X335634Y290994D01*
X336181Y293034D01*
Y295146D01*
X335634Y297186D01*
X334579Y299014D01*
X333085Y300508D01*
X331256Y301563D01*
X329217Y302110D01*
D02*
G37*
G36*
X259367Y301560D02*
X257255D01*
X255215Y301013D01*
X253386Y299958D01*
X251893Y298464D01*
X250837Y296636D01*
X250668Y296004D01*
X231443D01*
X230439Y297744D01*
X228945Y299238D01*
X227117Y300294D01*
X225077Y300840D01*
X222965D01*
X220925Y300294D01*
X219097Y299238D01*
X217603Y297744D01*
X216548Y295916D01*
X216001Y293876D01*
Y291764D01*
X216548Y289724D01*
X217603Y287896D01*
X219097Y286402D01*
X220925Y285347D01*
X221197Y285274D01*
Y252630D01*
X210594Y242027D01*
X209982Y241111D01*
X209767Y240030D01*
X209767Y240030D01*
Y222980D01*
X205841D01*
Y206940D01*
X221881D01*
Y222980D01*
X215415D01*
Y238860D01*
X226018Y249463D01*
X226630Y250379D01*
X226845Y251460D01*
Y285274D01*
X227117Y285347D01*
X228945Y286402D01*
X230439Y287896D01*
X231494Y289724D01*
X231664Y290356D01*
X250889D01*
X251893Y288616D01*
X253386Y287122D01*
X255215Y286066D01*
X257255Y285520D01*
X259367D01*
X261406Y286066D01*
X263235Y287122D01*
X264729Y288616D01*
X265784Y290444D01*
X266331Y292484D01*
Y294596D01*
X265784Y296636D01*
X264729Y298464D01*
X263235Y299958D01*
X261406Y301013D01*
X259367Y301560D01*
D02*
G37*
G36*
X493178Y297310D02*
X492626D01*
Y288925D01*
X501011D01*
Y289478D01*
X500396Y291772D01*
X499209Y293828D01*
X497529Y295508D01*
X495472Y296695D01*
X493178Y297310D01*
D02*
G37*
G36*
X491356D02*
X490803D01*
X488509Y296695D01*
X486452Y295508D01*
X484773Y293828D01*
X483586Y291772D01*
X482971Y289478D01*
Y288925D01*
X491356D01*
Y297310D01*
D02*
G37*
G36*
X151417Y300840D02*
X149305D01*
X147265Y300294D01*
X145436Y299238D01*
X143943Y297744D01*
X142887Y295916D01*
X142341Y293876D01*
Y291764D01*
X142887Y289724D01*
X143943Y287896D01*
X145436Y286402D01*
X147265Y285347D01*
X149305Y284800D01*
X151417D01*
X153456Y285347D01*
X155285Y286402D01*
X156779Y287896D01*
X157624Y289361D01*
X180745D01*
X180987Y288454D01*
X182043Y286626D01*
X183536Y285132D01*
X185365Y284076D01*
X187405Y283530D01*
X189517D01*
X191556Y284076D01*
X193385Y285132D01*
X194879Y286626D01*
X195934Y288454D01*
X196481Y290494D01*
Y292606D01*
X195934Y294646D01*
X194879Y296474D01*
X193385Y297968D01*
X191556Y299023D01*
X189517Y299570D01*
X187405D01*
X185365Y299023D01*
X183536Y297968D01*
X182043Y296474D01*
X181197Y295009D01*
X158077D01*
X157834Y295916D01*
X156779Y297744D01*
X155285Y299238D01*
X153456Y300294D01*
X151417Y300840D01*
D02*
G37*
G36*
X501011Y287655D02*
X492626D01*
Y279270D01*
X493178D01*
X495472Y279885D01*
X497529Y281072D01*
X499209Y282752D01*
X500396Y284808D01*
X501011Y287103D01*
Y287655D01*
D02*
G37*
G36*
X491356D02*
X482971D01*
Y287103D01*
X483586Y284808D01*
X484773Y282752D01*
X486452Y281072D01*
X488509Y279885D01*
X490803Y279270D01*
X491356D01*
Y287655D01*
D02*
G37*
G36*
X189517Y222980D02*
X189096D01*
Y215595D01*
X196481D01*
Y216016D01*
X195934Y218056D01*
X194879Y219884D01*
X193385Y221378D01*
X191556Y222433D01*
X189517Y222980D01*
D02*
G37*
G36*
X187826D02*
X187405D01*
X185365Y222433D01*
X183536Y221378D01*
X182043Y219884D01*
X180987Y218056D01*
X180441Y216016D01*
Y215595D01*
X187826D01*
Y222980D01*
D02*
G37*
G36*
X54897Y227730D02*
X52785D01*
X50745Y227183D01*
X48917Y226128D01*
X47423Y224634D01*
X46368Y222806D01*
X45821Y220766D01*
Y218654D01*
X46368Y216614D01*
X47423Y214786D01*
X48917Y213292D01*
X50745Y212236D01*
X52785Y211690D01*
X54897D01*
X56936Y212236D01*
X58765Y213292D01*
X60259Y214786D01*
X61314Y216614D01*
X61387Y216886D01*
X83921D01*
Y210970D01*
X99961D01*
Y227010D01*
X83921D01*
Y222534D01*
X61387D01*
X61314Y222806D01*
X60259Y224634D01*
X58765Y226128D01*
X56936Y227183D01*
X54897Y227730D01*
D02*
G37*
G36*
X196481Y214325D02*
X189096D01*
Y206940D01*
X189517D01*
X191556Y207486D01*
X193385Y208542D01*
X194879Y210036D01*
X195934Y211864D01*
X196481Y213904D01*
Y214325D01*
D02*
G37*
G36*
X187826D02*
X180441D01*
Y213904D01*
X180987Y211864D01*
X182043Y210036D01*
X183536Y208542D01*
X185365Y207486D01*
X187405Y206940D01*
X187826D01*
Y214325D01*
D02*
G37*
G36*
X164117Y222980D02*
X162005D01*
X159965Y222433D01*
X158137Y221378D01*
X156643Y219884D01*
X155588Y218056D01*
X155041Y216016D01*
Y213904D01*
X155588Y211864D01*
X156643Y210036D01*
X158137Y208542D01*
X159965Y207486D01*
X162005Y206940D01*
X164117D01*
X166157Y207486D01*
X167985Y208542D01*
X169479Y210036D01*
X170534Y211864D01*
X171081Y213904D01*
Y216016D01*
X170534Y218056D01*
X169479Y219884D01*
X167985Y221378D01*
X166157Y222433D01*
X164117Y222980D01*
D02*
G37*
G36*
X50245Y349090D02*
X47277D01*
X44411Y348322D01*
X41841Y346838D01*
X39743Y344740D01*
X38259Y342170D01*
X37491Y339304D01*
Y336336D01*
X38259Y333470D01*
X39743Y330900D01*
X41841Y328802D01*
X44411Y327318D01*
X47277Y326550D01*
X50245D01*
X53111Y327318D01*
X53565Y327580D01*
X91043Y290102D01*
X92290Y289269D01*
X93761Y288976D01*
X103949D01*
X104573Y287896D01*
X106067Y286402D01*
X107895Y285347D01*
X109935Y284800D01*
X112047D01*
X113252Y285123D01*
X133817Y264558D01*
Y222001D01*
X132737Y221378D01*
X131243Y219884D01*
X130188Y218056D01*
X129641Y216016D01*
Y213904D01*
X130188Y211864D01*
X131243Y210036D01*
X132737Y208542D01*
X134565Y207486D01*
X136605Y206940D01*
X138717D01*
X140757Y207486D01*
X142585Y208542D01*
X144079Y210036D01*
X145134Y211864D01*
X145681Y213904D01*
Y216016D01*
X145134Y218056D01*
X144079Y219884D01*
X142585Y221378D01*
X141505Y222001D01*
Y266150D01*
X141212Y267621D01*
X140379Y268868D01*
X140379Y268868D01*
X118688Y290559D01*
X119011Y291764D01*
Y293876D01*
X118464Y295916D01*
X117409Y297744D01*
X115915Y299238D01*
X114087Y300294D01*
X112047Y300840D01*
X109935D01*
X107895Y300294D01*
X106067Y299238D01*
X104573Y297744D01*
X103949Y296664D01*
X95353D01*
X59001Y333016D01*
X59263Y333470D01*
X60031Y336336D01*
Y339304D01*
X59263Y342170D01*
X57779Y344740D01*
X55681Y346838D01*
X53111Y348322D01*
X50245Y349090D01*
D02*
G37*
G36*
X350971Y218820D02*
X348531D01*
X346173Y218188D01*
X344059Y216968D01*
X342333Y215242D01*
X341113Y213128D01*
X340481Y210770D01*
Y208330D01*
X341113Y205972D01*
X342333Y203858D01*
X344059Y202132D01*
X346173Y200912D01*
X348531Y200280D01*
X350971D01*
X353329Y200912D01*
X355443Y202132D01*
X357169Y203858D01*
X358389Y205972D01*
X359021Y208330D01*
Y210770D01*
X358389Y213128D01*
X357169Y215242D01*
X355443Y216968D01*
X353329Y218188D01*
X350971Y218820D01*
D02*
G37*
G36*
X500011Y458870D02*
X483971D01*
Y442830D01*
X500011D01*
Y447006D01*
X513809D01*
X537677Y423138D01*
Y228952D01*
X503541Y194816D01*
X502451Y195522D01*
X502451Y196407D01*
Y207854D01*
X530269Y235672D01*
X531102Y236919D01*
X531395Y238390D01*
X531395Y238390D01*
Y406950D01*
X531102Y408421D01*
X530269Y409668D01*
X530269Y409668D01*
X518119Y421818D01*
X516872Y422651D01*
X515401Y422944D01*
X515401Y422944D01*
X500302D01*
X499679Y424024D01*
X498185Y425518D01*
X496357Y426573D01*
X494317Y427120D01*
X492205D01*
X490165Y426573D01*
X488336Y425518D01*
X486843Y424024D01*
X485788Y422196D01*
X485241Y420156D01*
Y418044D01*
X485788Y416004D01*
X486843Y414176D01*
X488336Y412682D01*
X490165Y411627D01*
X492205Y411080D01*
X494317D01*
X496357Y411627D01*
X498185Y412682D01*
X499679Y414176D01*
X500302Y415256D01*
X513809D01*
X523707Y405358D01*
Y239982D01*
X497015Y213290D01*
X489847D01*
X465469Y237668D01*
X464222Y238501D01*
X462751Y238794D01*
X462751Y238794D01*
X358236D01*
X357169Y240642D01*
X355443Y242368D01*
X353329Y243588D01*
X350971Y244220D01*
X348531D01*
X346173Y243588D01*
X344059Y242368D01*
X342333Y240642D01*
X341999Y240064D01*
X306571D01*
X306571Y240064D01*
X305100Y239771D01*
X303853Y238938D01*
X303853Y238938D01*
X282263Y217348D01*
X281430Y216101D01*
X281137Y214630D01*
X281137Y214630D01*
Y204553D01*
X280210Y204018D01*
X278763Y202571D01*
X277740Y200799D01*
X277211Y198823D01*
Y196777D01*
X277740Y194801D01*
X278763Y193029D01*
X280210Y191582D01*
X281982Y190560D01*
X283958Y190030D01*
X286004D01*
X287980Y190560D01*
X289752Y191582D01*
X291199Y193029D01*
X292221Y194801D01*
X292751Y196777D01*
Y198823D01*
X292221Y200799D01*
X291199Y202571D01*
X289752Y204018D01*
X288825Y204553D01*
Y213038D01*
X308163Y232376D01*
X340844D01*
X341113Y231372D01*
X342333Y229258D01*
X344059Y227532D01*
X346173Y226312D01*
X348531Y225680D01*
X350971D01*
X353329Y226312D01*
X355443Y227532D01*
X357169Y229258D01*
X358236Y231106D01*
X461159D01*
X484411Y207854D01*
Y195250D01*
X501213D01*
X502179Y195250D01*
X502884Y194160D01*
X496508Y187784D01*
X494618Y188290D01*
X492243D01*
X489949Y187675D01*
X487892Y186488D01*
X486213Y184808D01*
X485026Y182752D01*
X484411Y180457D01*
Y178083D01*
X484917Y176192D01*
X445919Y137194D01*
X403494D01*
X402958Y138121D01*
X401512Y139567D01*
X399740Y140590D01*
X397764Y141120D01*
X395718D01*
X393742Y140590D01*
X391970Y139567D01*
X390523Y138121D01*
X389988Y137194D01*
X371341D01*
X369870Y136901D01*
X368623Y136068D01*
X368623Y136068D01*
X355981Y123426D01*
X353577Y124070D01*
X351005D01*
X348520Y123404D01*
X346292Y122118D01*
X344473Y120299D01*
X343187Y118071D01*
X342521Y115586D01*
Y113014D01*
X343187Y110529D01*
X344473Y108301D01*
X346292Y106482D01*
X348520Y105196D01*
X351005Y104530D01*
X353577D01*
X356062Y105196D01*
X358290Y106482D01*
X360109Y108301D01*
X361395Y110529D01*
X362061Y113014D01*
Y115586D01*
X361417Y117990D01*
X372933Y129506D01*
X389988D01*
X390523Y128579D01*
X391970Y127133D01*
X393742Y126110D01*
X395718Y125580D01*
X397764D01*
X399740Y126110D01*
X401512Y127133D01*
X402958Y128579D01*
X403494Y129506D01*
X447511D01*
X447511Y129506D01*
X448982Y129799D01*
X450229Y130632D01*
X490353Y170756D01*
X492243Y170250D01*
X494618D01*
X496912Y170865D01*
X498969Y172052D01*
X500649Y173732D01*
X501836Y175788D01*
X502451Y178083D01*
Y180457D01*
X501945Y182348D01*
X544239Y224642D01*
X544239Y224642D01*
X545072Y225889D01*
X545365Y227360D01*
Y424730D01*
X545365Y424730D01*
X545072Y426201D01*
X544239Y427448D01*
X544239Y427448D01*
X518119Y453568D01*
X516872Y454401D01*
X515401Y454694D01*
X515401Y454694D01*
X500011D01*
Y458870D01*
D02*
G37*
G36*
X409194Y208430D02*
X407148D01*
X405172Y207901D01*
X403400Y206877D01*
X401953Y205431D01*
X400930Y203659D01*
X400401Y201683D01*
Y199637D01*
X400930Y197661D01*
X401953Y195889D01*
X403400Y194443D01*
X405172Y193419D01*
X407148Y192890D01*
X409194D01*
X411170Y193419D01*
X412942Y194443D01*
X414389Y195889D01*
X415411Y197661D01*
X415941Y199637D01*
Y201683D01*
X415411Y203659D01*
X414389Y205431D01*
X412942Y206877D01*
X411170Y207901D01*
X409194Y208430D01*
D02*
G37*
G36*
X359021Y193420D02*
X350386D01*
Y184785D01*
X359021D01*
Y193420D01*
D02*
G37*
G36*
X349116D02*
X340481D01*
Y184785D01*
X349116D01*
Y193420D01*
D02*
G37*
G36*
X415941Y188430D02*
X408806D01*
Y181295D01*
X415941D01*
Y188430D01*
D02*
G37*
G36*
X407536D02*
X400401D01*
Y181295D01*
X407536D01*
Y188430D01*
D02*
G37*
G36*
X292751Y185570D02*
X285616D01*
Y178435D01*
X292751D01*
Y185570D01*
D02*
G37*
G36*
X284346D02*
X277211D01*
Y178435D01*
X284346D01*
Y185570D01*
D02*
G37*
G36*
X359021Y183515D02*
X350386D01*
Y174880D01*
X359021D01*
Y183515D01*
D02*
G37*
G36*
X349116D02*
X340481D01*
Y174880D01*
X349116D01*
Y183515D01*
D02*
G37*
G36*
X415941Y180025D02*
X408806D01*
Y172890D01*
X415941D01*
Y180025D01*
D02*
G37*
G36*
X407536D02*
X400401D01*
Y172890D01*
X407536D01*
Y180025D01*
D02*
G37*
G36*
X292751Y177165D02*
X285616D01*
Y170030D01*
X292751D01*
Y177165D01*
D02*
G37*
G36*
X284346D02*
X277211D01*
Y170030D01*
X284346D01*
Y177165D01*
D02*
G37*
G36*
X214917Y143580D02*
X212805D01*
X210765Y143034D01*
X208937Y141978D01*
X207443Y140484D01*
X206388Y138656D01*
X205841Y136616D01*
Y134504D01*
X206388Y132464D01*
X207443Y130636D01*
X208937Y129142D01*
X210765Y128087D01*
X212805Y127540D01*
X214917D01*
X216957Y128087D01*
X218785Y129142D01*
X220279Y130636D01*
X221334Y132464D01*
X221881Y134504D01*
Y136616D01*
X221334Y138656D01*
X220279Y140484D01*
X218785Y141978D01*
X216957Y143034D01*
X214917Y143580D01*
D02*
G37*
G36*
X189517D02*
X187405D01*
X185365Y143034D01*
X183536Y141978D01*
X182043Y140484D01*
X180987Y138656D01*
X180441Y136616D01*
Y134504D01*
X180987Y132464D01*
X182043Y130636D01*
X183536Y129142D01*
X185365Y128087D01*
X187405Y127540D01*
X189517D01*
X191556Y128087D01*
X193385Y129142D01*
X194879Y130636D01*
X195934Y132464D01*
X196481Y134504D01*
Y136616D01*
X195934Y138656D01*
X194879Y140484D01*
X193385Y141978D01*
X191556Y143034D01*
X189517Y143580D01*
D02*
G37*
G36*
X164117D02*
X162005D01*
X159965Y143034D01*
X158137Y141978D01*
X156643Y140484D01*
X155588Y138656D01*
X155041Y136616D01*
Y134504D01*
X155588Y132464D01*
X156643Y130636D01*
X158137Y129142D01*
X159965Y128087D01*
X162005Y127540D01*
X164117D01*
X166157Y128087D01*
X167985Y129142D01*
X169479Y130636D01*
X170534Y132464D01*
X171081Y134504D01*
Y136616D01*
X170534Y138656D01*
X169479Y140484D01*
X167985Y141978D01*
X166157Y143034D01*
X164117Y143580D01*
D02*
G37*
G36*
X138717D02*
X136605D01*
X134565Y143034D01*
X132737Y141978D01*
X131243Y140484D01*
X130188Y138656D01*
X129641Y136616D01*
Y134504D01*
X130188Y132464D01*
X131243Y130636D01*
X132737Y129142D01*
X134565Y128087D01*
X136605Y127540D01*
X138717D01*
X140757Y128087D01*
X142585Y129142D01*
X144079Y130636D01*
X145134Y132464D01*
X145681Y134504D01*
Y136616D01*
X145134Y138656D01*
X144079Y140484D01*
X142585Y141978D01*
X140757Y143034D01*
X138717Y143580D01*
D02*
G37*
G36*
X61861Y137730D02*
X45821D01*
Y121690D01*
X61861D01*
Y137730D01*
D02*
G37*
G36*
X92997Y137010D02*
X90885D01*
X88845Y136463D01*
X87016Y135408D01*
X85523Y133914D01*
X84467Y132086D01*
X83921Y130046D01*
Y127934D01*
X84467Y125894D01*
X85523Y124066D01*
X87016Y122572D01*
X88845Y121517D01*
X90885Y120970D01*
X92997D01*
X95036Y121517D01*
X96865Y122572D01*
X98359Y124066D01*
X99414Y125894D01*
X99961Y127934D01*
Y130046D01*
X99414Y132086D01*
X98359Y133914D01*
X96865Y135408D01*
X95036Y136463D01*
X92997Y137010D01*
D02*
G37*
G36*
X404511Y115720D02*
X397376D01*
Y108585D01*
X404511D01*
Y115720D01*
D02*
G37*
G36*
X396106D02*
X388971D01*
Y108585D01*
X396106D01*
Y115720D01*
D02*
G37*
G36*
X404511Y107315D02*
X397376D01*
Y100180D01*
X404511D01*
Y107315D01*
D02*
G37*
G36*
X396106D02*
X388971D01*
Y100180D01*
X396106D01*
Y107315D01*
D02*
G37*
G36*
X353577Y98670D02*
X352926D01*
Y89535D01*
X362061D01*
Y90186D01*
X361395Y92671D01*
X360109Y94899D01*
X358290Y96718D01*
X356062Y98004D01*
X353577Y98670D01*
D02*
G37*
G36*
X351656D02*
X351005D01*
X348520Y98004D01*
X346292Y96718D01*
X344473Y94899D01*
X343187Y92671D01*
X342521Y90186D01*
Y89535D01*
X351656D01*
Y98670D01*
D02*
G37*
G36*
X502281Y103000D02*
X484241D01*
Y84960D01*
X502281D01*
Y103000D01*
D02*
G37*
G36*
X362061Y88265D02*
X352926D01*
Y79130D01*
X353577D01*
X356062Y79796D01*
X358290Y81082D01*
X360109Y82901D01*
X361395Y85129D01*
X362061Y87614D01*
Y88265D01*
D02*
G37*
G36*
X351656D02*
X342521D01*
Y87614D01*
X343187Y85129D01*
X344473Y82901D01*
X346292Y81082D01*
X348520Y79796D01*
X351005Y79130D01*
X351656D01*
Y88265D01*
D02*
G37*
G36*
X494448Y78000D02*
X492073D01*
X489779Y77385D01*
X487723Y76198D01*
X486043Y74518D01*
X485065Y72824D01*
X475881D01*
X475881Y72824D01*
X474410Y72531D01*
X473163Y71698D01*
X449759Y48294D01*
X403494D01*
X402958Y49221D01*
X401512Y50668D01*
X399740Y51691D01*
X397764Y52220D01*
X395718D01*
X393742Y51691D01*
X391970Y50668D01*
X390523Y49221D01*
X389988Y48294D01*
X372933D01*
X362061Y59166D01*
Y73270D01*
X342521D01*
Y53730D01*
X356625D01*
X368623Y41732D01*
X368623Y41732D01*
X369870Y40899D01*
X371341Y40606D01*
X389988D01*
X390523Y39679D01*
X391970Y38233D01*
X393742Y37209D01*
X395718Y36680D01*
X397764D01*
X399740Y37209D01*
X401512Y38233D01*
X402958Y39679D01*
X403494Y40606D01*
X451351D01*
X451351Y40606D01*
X452822Y40899D01*
X454069Y41732D01*
X477473Y65136D01*
X485065D01*
X486043Y63442D01*
X487723Y61762D01*
X489779Y60575D01*
X492073Y59960D01*
X494448D01*
X496743Y60575D01*
X498799Y61762D01*
X500479Y63442D01*
X501666Y65498D01*
X502281Y67793D01*
Y70167D01*
X501666Y72462D01*
X500479Y74518D01*
X498799Y76198D01*
X496743Y77385D01*
X494448Y78000D01*
D02*
G37*
G36*
X185838Y89030D02*
X183463D01*
X181169Y88415D01*
X179112Y87228D01*
X177433Y85548D01*
X176246Y83492D01*
X175631Y81198D01*
Y78822D01*
X176246Y76528D01*
X177433Y74472D01*
X179112Y72792D01*
X181169Y71605D01*
X183463Y70990D01*
X185838D01*
X188132Y71605D01*
X190189Y72792D01*
X191869Y74472D01*
X193056Y76528D01*
X193671Y78822D01*
Y81198D01*
X193056Y83492D01*
X191869Y85548D01*
X190189Y87228D01*
X188132Y88415D01*
X185838Y89030D01*
D02*
G37*
G36*
X168671D02*
X150631D01*
Y70990D01*
X168671D01*
Y89030D01*
D02*
G37*
G36*
X404511Y77620D02*
X397376D01*
Y70485D01*
X404511D01*
Y77620D01*
D02*
G37*
G36*
X396106D02*
X388971D01*
Y70485D01*
X396106D01*
Y77620D01*
D02*
G37*
G36*
X88048Y87760D02*
X85673D01*
X83379Y87145D01*
X81322Y85958D01*
X79643Y84278D01*
X78456Y82222D01*
X77841Y79928D01*
Y77552D01*
X78456Y75258D01*
X79643Y73202D01*
X81322Y71522D01*
X83379Y70335D01*
X85673Y69720D01*
X88048D01*
X90343Y70335D01*
X92399Y71522D01*
X94079Y73202D01*
X95266Y75258D01*
X95881Y77552D01*
Y79928D01*
X95266Y82222D01*
X94079Y84278D01*
X92399Y85958D01*
X90343Y87145D01*
X88048Y87760D01*
D02*
G37*
G36*
X70881D02*
X52841D01*
Y69720D01*
X70881D01*
Y87760D01*
D02*
G37*
G36*
X404511Y69215D02*
X397376D01*
Y62080D01*
X404511D01*
Y69215D01*
D02*
G37*
G36*
X396106D02*
X388971D01*
Y62080D01*
X396106D01*
Y69215D01*
D02*
G37*
%LPD*%
D12*
X491121Y312420D02*
X491991Y313290D01*
X185836Y292185D02*
X188461Y289560D01*
X150361Y292820D02*
X150996Y292185D01*
X188461Y289560D02*
Y291550D01*
Y381550D02*
X189096Y382185D01*
X220126D02*
X220761Y382820D01*
X224021D01*
X328161Y384090D02*
X328521Y383730D01*
X364631D02*
X364991Y383370D01*
X293871Y292270D02*
X294781Y293180D01*
X327251D02*
X328161Y294090D01*
X258311Y383540D02*
X258946Y382905D01*
X293236D02*
X293871Y382270D01*
X257951Y293180D02*
X258311Y293540D01*
X224021Y292820D02*
X224381Y293180D01*
D15*
X491991Y313290D02*
D03*
X493431Y204270D02*
D03*
X493261Y93980D02*
D03*
D16*
X491991Y288290D02*
D03*
X493431Y179270D02*
D03*
X184651Y80010D02*
D03*
X86861Y78740D02*
D03*
X493261Y68980D02*
D03*
D17*
X409441Y363220D02*
D03*
D18*
Y337820D02*
D03*
Y312420D02*
D03*
D21*
X287121Y450850D02*
D03*
X262121D02*
D03*
X178301Y452120D02*
D03*
X153301D02*
D03*
D22*
X237121Y450850D02*
D03*
X128301Y452120D02*
D03*
D25*
X159651Y80010D02*
D03*
X61861Y78740D02*
D03*
D26*
X213861Y214960D02*
D03*
X53841Y129710D02*
D03*
X364991Y293370D02*
D03*
X91941Y218990D02*
D03*
X110991Y382820D02*
D03*
D27*
X493261Y419100D02*
D03*
X401991Y450850D02*
D03*
X188461Y214960D02*
D03*
X163061D02*
D03*
X137661D02*
D03*
Y135560D02*
D03*
X163061D02*
D03*
X188461D02*
D03*
X213861D02*
D03*
X53841Y219710D02*
D03*
X364991Y383370D02*
D03*
X328161Y384090D02*
D03*
Y294090D02*
D03*
X293871Y292270D02*
D03*
Y382270D02*
D03*
X258311Y383540D02*
D03*
Y293540D02*
D03*
X224021Y292820D02*
D03*
Y382820D02*
D03*
X91941Y128990D02*
D03*
X188461Y381550D02*
D03*
Y291550D02*
D03*
X150361Y292820D02*
D03*
Y382820D02*
D03*
X110991Y292820D02*
D03*
D33*
X48761Y312420D02*
D03*
Y337820D02*
D03*
D34*
Y363220D02*
D03*
D36*
X493261Y419100D02*
X515401D01*
X527551Y406950D01*
X491991Y450850D02*
X515401D01*
X541521Y424730D01*
X390391Y318770D02*
X409441Y337820D01*
X390391Y300990D02*
Y318770D01*
X364991Y293370D02*
X382771D01*
X390391Y300990D01*
X137661Y214960D02*
Y266150D01*
X110991Y292820D02*
X137661Y266150D01*
X48761Y337820D02*
X93761Y292820D01*
X110991D01*
X493431Y179270D02*
X541521Y227360D01*
Y424730D01*
X527551Y238390D02*
Y406950D01*
X493431Y204270D02*
X527551Y238390D01*
X396741Y133350D02*
X447511D01*
X493431Y179270D01*
X462751Y234950D02*
X493431Y204270D01*
X349751Y234950D02*
X462751D01*
X306571Y236220D02*
X348481D01*
X284981Y214630D02*
X306571Y236220D01*
X284981Y197800D02*
Y214630D01*
X371341Y133350D02*
X396741D01*
X352291Y114300D02*
X371341Y133350D01*
X352291Y63500D02*
X371341Y44450D01*
X396741D01*
X475881Y68980D02*
X493261D01*
X451351Y44450D02*
X475881Y68980D01*
X396741Y44450D02*
X451351D01*
D37*
X91221Y219710D02*
X91941Y218990D01*
X53841Y219710D02*
X91221D01*
X348481Y236220D02*
X349751Y234950D01*
X212591Y216230D02*
X213861Y214960D01*
X212591Y216230D02*
Y240030D01*
X224021Y251460D02*
Y292820D01*
X212591Y240030D02*
X224021Y251460D01*
X213861Y214960D02*
X215131Y216230D01*
X68361Y382820D02*
X110991D01*
X48761Y363220D02*
X68361Y382820D01*
X48761Y335280D02*
Y337820D01*
X364991Y293370D02*
X366261Y294640D01*
X364991Y383370D02*
X389291D01*
X409441Y363220D01*
X110991Y382820D02*
X150361D01*
X150996Y292185D02*
X185836D01*
X189096Y382185D02*
X220126D01*
X328521Y383730D02*
X364631D01*
X294781Y293180D02*
X327251D01*
X258946Y382905D02*
X293236D01*
X224381Y293180D02*
X257951D01*
D38*
X403261Y419100D02*
D03*
X491991Y450850D02*
D03*
D39*
X349751Y184150D02*
D03*
D40*
Y209550D02*
D03*
Y234950D02*
D03*
D41*
X396741Y44450D02*
D03*
Y133350D02*
D03*
X284981Y197800D02*
D03*
X408171Y200660D02*
D03*
D42*
X396741Y69850D02*
D03*
Y107950D02*
D03*
X284981Y177800D02*
D03*
X408171Y180660D02*
D03*
D43*
X352291Y114300D02*
D03*
Y88900D02*
D03*
D44*
Y63500D02*
D03*
D45*
X23361Y24130D02*
D03*
X554221D02*
D03*
X551681Y455930D02*
D03*
X28441D02*
D03*
M02*
