M48
;Layer_Color=9474304
;FILE_FORMAT=4:2
METRIC,LZ
;TYPE=PLATED
T1F00S00C0.80
T2F00S00C0.85
T3F00S00C0.90
T4F00S00C1.00
T5F00S00C1.10
T6F00S00C1.20
T7F00S00C1.30
T8F00S00C3.20
%
T01
X003967Y000445
Y000699
Y00108
Y001334
X004082Y001807
Y002007
X00285Y001978
Y001778
T02
X000538Y001297
X000919Y00129
X001377Y001356
X001631
X001885
X002139
Y00215
X001885
X001631
X001504Y002928
X001885Y002916
X00224Y002928
X002583Y002935
X002939Y002923
X003282Y002941
X00365Y002934
Y003834
X003282Y003841
X002939Y003823
X002583Y003835
X00224Y003828
X001885Y003815
X001504Y003828
X004033Y004191
X00402Y004508
X00492
X004933Y004191
X00111Y003828
Y002928
X000919Y00219
X000538Y002197
X001377Y00215
T03
X001533Y004521
X001783
X002371Y004508
X002621
X002871
X001283Y004521
T04
X000619Y000787
X000869
X001597Y0008
X001847
X004933Y00069
Y00094
X004934Y001793
Y002043
X00492Y002883
Y003133
X003498Y00235
Y002095
Y001842
T05
X003523Y000635
Y000889
Y001143
T06
X004094Y003124
Y003378
Y003632
T07
X000488Y003124
Y003378
Y003632
T08
X000234Y000241
X005542
X005517Y004559
X000284
M30
