G04*
G04 #@! TF.GenerationSoftware,Altium Limited,Altium Designer,23.6.0 (18)*
G04*
G04 Layer_Color=8388736*
%FSLAX44Y44*%
%MOMM*%
G71*
G04*
G04 #@! TF.SameCoordinates,C98FF4F9-6FCD-44A5-A41D-EB2AB3F7E161*
G04*
G04*
G04 #@! TF.FilePolarity,Positive*
G04*
G01*
G75*
%ADD11C,0.2000*%
D11*
X515491Y263790D02*
Y337790D01*
X457991Y263790D02*
X515491D01*
X457991D02*
Y337790D01*
X515491D01*
X393741Y392320D02*
X439241D01*
Y283320D02*
Y392320D01*
X393741Y283320D02*
X439241D01*
X393741D02*
Y392320D01*
X212621Y416850D02*
Y474350D01*
Y416850D02*
X311621D01*
Y474350D01*
X212621D02*
X311621D01*
X103801Y418120D02*
Y475620D01*
Y418120D02*
X202801D01*
Y475620D01*
X103801D02*
X202801D01*
X516931Y154770D02*
Y228770D01*
X459431Y154770D02*
X516931D01*
X459431D02*
Y228770D01*
X516931D01*
X135151Y103510D02*
X209151D01*
Y46010D02*
Y103510D01*
X135151Y46010D02*
X209151D01*
X135151D02*
Y103510D01*
X37361Y102240D02*
X111361D01*
Y44740D02*
Y102240D01*
X37361Y44740D02*
X111361D01*
X37361D02*
Y102240D01*
X226561Y139710D02*
Y210810D01*
X124961Y139710D02*
X226561D01*
X124961D02*
Y210810D01*
X226561D01*
X516761Y44480D02*
Y118480D01*
X459261Y44480D02*
X516761D01*
X459261D02*
Y118480D01*
X516761D01*
X30711Y284070D02*
Y391570D01*
Y284070D02*
X79011D01*
Y391570D01*
X30711D02*
X79011D01*
M02*
