G04*
G04 #@! TF.GenerationSoftware,Altium Limited,Altium Designer,23.6.0 (18)*
G04*
G04 Layer_Color=32768*
%FSLAX44Y44*%
%MOMM*%
G71*
G04*
G04 #@! TF.SameCoordinates,C98FF4F9-6FCD-44A5-A41D-EB2AB3F7E161*
G04*
G04*
G04 #@! TF.FilePolarity,Positive*
G04*
G01*
G75*
%ADD11C,0.2000*%
D11*
X516491Y262790D02*
Y338790D01*
X456991Y262790D02*
X516491D01*
X456991D02*
Y338790D01*
X516491D01*
X392741Y393320D02*
X440241D01*
Y282320D02*
Y393320D01*
X392741Y282320D02*
X440241D01*
X392741D02*
Y393320D01*
X211621Y415850D02*
Y475350D01*
Y415850D02*
X312621D01*
Y475350D01*
X211621D02*
X312621D01*
X102801Y417120D02*
Y476620D01*
Y417120D02*
X203801D01*
Y476620D01*
X102801D02*
X203801D01*
X517931Y153770D02*
Y229770D01*
X458431Y153770D02*
X517931D01*
X458431D02*
Y229770D01*
X517931D01*
X134151Y104510D02*
X210151D01*
Y45010D02*
Y104510D01*
X134151Y45010D02*
X210151D01*
X134151D02*
Y104510D01*
X36361Y103240D02*
X112361D01*
Y43740D02*
Y103240D01*
X36361Y43740D02*
X112361D01*
X36361D02*
Y103240D01*
X228831Y127810D02*
Y222710D01*
X122691Y127810D02*
X228831D01*
X122691D02*
Y222710D01*
X228831D01*
X517761Y43480D02*
Y119480D01*
X458261Y43480D02*
X517761D01*
X458261D02*
Y119480D01*
X517761D01*
X29711Y283070D02*
Y392570D01*
Y283070D02*
X80011D01*
Y392570D01*
X29711D02*
X80011D01*
M02*
