G04*
G04 #@! TF.GenerationSoftware,Altium Limited,Altium Designer,23.6.0 (18)*
G04*
G04 Layer_Color=255*
%FSLAX44Y44*%
%MOMM*%
G71*
G04*
G04 #@! TF.SameCoordinates,C98FF4F9-6FCD-44A5-A41D-EB2AB3F7E161*
G04*
G04*
G04 #@! TF.FilePolarity,Positive*
G04*
G01*
G75*
%ADD15R,1.5500X1.5500*%
%ADD16C,1.5500*%
%ADD17R,1.8500X1.8500*%
%ADD18C,1.8500*%
%ADD21C,1.4000*%
%ADD22R,1.4000X1.4000*%
%ADD25R,1.5500X1.5500*%
%ADD26R,1.3500X1.3500*%
%ADD27C,1.3500*%
%ADD33C,2.0000*%
%ADD34R,2.0000X2.0000*%
%ADD38R,1.3500X1.3500*%
%ADD39R,1.6000X1.6000*%
%ADD40C,1.6000*%
%ADD41C,1.3000*%
%ADD42R,1.3000X1.3000*%
%ADD43C,1.7000*%
%ADD44R,1.7000X1.7000*%
D15*
X491991Y313290D02*
D03*
X493431Y204270D02*
D03*
X493261Y93980D02*
D03*
D16*
X491991Y288290D02*
D03*
X493431Y179270D02*
D03*
X184651Y80010D02*
D03*
X86861Y78740D02*
D03*
X493261Y68980D02*
D03*
D17*
X409441Y363220D02*
D03*
D18*
Y337820D02*
D03*
Y312420D02*
D03*
D21*
X287121Y450850D02*
D03*
X262121D02*
D03*
X178301Y452120D02*
D03*
X153301D02*
D03*
D22*
X237121Y450850D02*
D03*
X128301Y452120D02*
D03*
D25*
X159651Y80010D02*
D03*
X61861Y78740D02*
D03*
D26*
X213861Y214960D02*
D03*
X53841Y129710D02*
D03*
X364991Y293370D02*
D03*
X91941Y218990D02*
D03*
X110991Y382820D02*
D03*
D27*
X493261Y419100D02*
D03*
X401991Y450850D02*
D03*
X188461Y214960D02*
D03*
X163061D02*
D03*
X137661D02*
D03*
Y135560D02*
D03*
X163061D02*
D03*
X188461D02*
D03*
X213861D02*
D03*
X53841Y219710D02*
D03*
X364991Y383370D02*
D03*
X328161Y384090D02*
D03*
Y294090D02*
D03*
X293871Y292270D02*
D03*
Y382270D02*
D03*
X258311Y383540D02*
D03*
Y293540D02*
D03*
X224021Y292820D02*
D03*
Y382820D02*
D03*
X91941Y128990D02*
D03*
X188461Y381550D02*
D03*
Y291550D02*
D03*
X150361Y292820D02*
D03*
Y382820D02*
D03*
X110991Y292820D02*
D03*
D33*
X48761Y312420D02*
D03*
Y337820D02*
D03*
D34*
Y363220D02*
D03*
D38*
X403261Y419100D02*
D03*
X491991Y450850D02*
D03*
D39*
X349751Y184150D02*
D03*
D40*
Y209550D02*
D03*
Y234950D02*
D03*
D41*
X396741Y44450D02*
D03*
Y133350D02*
D03*
X284981Y197800D02*
D03*
X408171Y200660D02*
D03*
D42*
X396741Y69850D02*
D03*
Y107950D02*
D03*
X284981Y177800D02*
D03*
X408171Y180660D02*
D03*
D43*
X352291Y114300D02*
D03*
Y88900D02*
D03*
D44*
Y63500D02*
D03*
M02*
