G04*
G04 #@! TF.GenerationSoftware,Altium Limited,Altium Designer,23.6.0 (18)*
G04*
G04 Layer_Color=128*
%FSLAX44Y44*%
%MOMM*%
G71*
G04*
G04 #@! TF.SameCoordinates,C98FF4F9-6FCD-44A5-A41D-EB2AB3F7E161*
G04*
G04*
G04 #@! TF.FilePolarity,Positive*
G04*
G01*
G75*
%ADD49C,0.1270*%
D49*
X486991Y313290D02*
X496991D01*
X491991Y308290D02*
Y318290D01*
X486991Y288290D02*
X496991D01*
X491991Y283290D02*
Y293290D01*
X403441Y363220D02*
X415441D01*
X409441Y357220D02*
Y369220D01*
X403441Y337820D02*
X415441D01*
X409441Y331820D02*
Y343820D01*
X403441Y312420D02*
X415441D01*
X409441Y306420D02*
Y318420D01*
X399011Y419100D02*
X407511D01*
X403261Y414850D02*
Y423350D01*
X489011Y419100D02*
X497511D01*
X493261Y414850D02*
Y423350D01*
X487741Y450850D02*
X496241D01*
X491991Y446600D02*
Y455100D01*
X397741Y450850D02*
X406241D01*
X401991Y446600D02*
Y455100D01*
X282621Y450850D02*
X291621D01*
X287121Y446350D02*
Y455350D01*
X257621Y450850D02*
X266621D01*
X262121Y446350D02*
Y455350D01*
X232621Y450850D02*
X241621D01*
X237121Y446350D02*
Y455350D01*
X173801Y452120D02*
X182801D01*
X178301Y447620D02*
Y456620D01*
X148801Y452120D02*
X157801D01*
X153301Y447620D02*
Y456620D01*
X123801Y452120D02*
X132801D01*
X128301Y447620D02*
Y456620D01*
X344751Y184150D02*
X354751D01*
X349751Y179150D02*
Y189150D01*
X344751Y209550D02*
X354751D01*
X349751Y204550D02*
Y214550D01*
X344751Y234950D02*
X354751D01*
X349751Y229950D02*
Y239950D01*
X488431Y204270D02*
X498431D01*
X493431Y199270D02*
Y209270D01*
X488431Y179270D02*
X498431D01*
X493431Y174270D02*
Y184270D01*
X154651Y80010D02*
X164651D01*
X159651Y75010D02*
Y85010D01*
X179651Y80010D02*
X189651D01*
X184651Y75010D02*
Y85010D01*
X56861Y78740D02*
X66861D01*
X61861Y73740D02*
Y83740D01*
X81861Y78740D02*
X91861D01*
X86861Y73740D02*
Y83740D01*
X209611Y214960D02*
X218111D01*
X213861Y210710D02*
Y219210D01*
X184211Y214960D02*
X192711D01*
X188461Y210710D02*
Y219210D01*
X158811Y214960D02*
X167311D01*
X163061Y210710D02*
Y219210D01*
X133411Y214960D02*
X141911D01*
X137661Y210710D02*
Y219210D01*
X133411Y135560D02*
X141911D01*
X137661Y131310D02*
Y139810D01*
X158811Y135560D02*
X167311D01*
X163061Y131310D02*
Y139810D01*
X184211Y135560D02*
X192711D01*
X188461Y131310D02*
Y139810D01*
X209611Y135560D02*
X218111D01*
X213861Y131310D02*
Y139810D01*
X392741Y44450D02*
X400741D01*
X396741Y40450D02*
Y48450D01*
X392741Y69850D02*
X400741D01*
X396741Y65850D02*
Y73850D01*
X346791Y114300D02*
X357791D01*
X352291Y108800D02*
Y119800D01*
X346791Y88900D02*
X357791D01*
X352291Y83400D02*
Y94400D01*
X346791Y63500D02*
X357791D01*
X352291Y58000D02*
Y69000D01*
X392741Y133350D02*
X400741D01*
X396741Y129350D02*
Y137350D01*
X392741Y107950D02*
X400741D01*
X396741Y103950D02*
Y111950D01*
X488261Y93980D02*
X498261D01*
X493261Y88980D02*
Y98980D01*
X488261Y68980D02*
X498261D01*
X493261Y63980D02*
Y73980D01*
X280981Y197800D02*
X288981D01*
X284981Y193800D02*
Y201800D01*
X280981Y177800D02*
X288981D01*
X284981Y173800D02*
Y181800D01*
X49591Y129710D02*
X58091D01*
X53841Y125460D02*
Y133960D01*
X49591Y219710D02*
X58091D01*
X53841Y215460D02*
Y223960D01*
X360741Y293370D02*
X369241D01*
X364991Y289120D02*
Y297620D01*
X360741Y383370D02*
X369241D01*
X364991Y379120D02*
Y387620D01*
X323911Y384090D02*
X332411D01*
X328161Y379840D02*
Y388340D01*
X323911Y294090D02*
X332411D01*
X328161Y289840D02*
Y298340D01*
X289621Y292270D02*
X298121D01*
X293871Y288020D02*
Y296520D01*
X289621Y382270D02*
X298121D01*
X293871Y378020D02*
Y386520D01*
X254061Y383540D02*
X262561D01*
X258311Y379290D02*
Y387790D01*
X254061Y293540D02*
X262561D01*
X258311Y289290D02*
Y297790D01*
X219771Y292820D02*
X228271D01*
X224021Y288570D02*
Y297070D01*
X219771Y382820D02*
X228271D01*
X224021Y378570D02*
Y387070D01*
X87691Y218990D02*
X96191D01*
X91941Y214740D02*
Y223240D01*
X87691Y128990D02*
X96191D01*
X91941Y124740D02*
Y133240D01*
X184211Y381550D02*
X192711D01*
X188461Y377300D02*
Y385800D01*
X184211Y291550D02*
X192711D01*
X188461Y287300D02*
Y295800D01*
X404171Y180660D02*
X412171D01*
X408171Y176660D02*
Y184660D01*
X404171Y200660D02*
X412171D01*
X408171Y196660D02*
Y204660D01*
X146111Y292820D02*
X154611D01*
X150361Y288570D02*
Y297070D01*
X146111Y382820D02*
X154611D01*
X150361Y378570D02*
Y387070D01*
X42261Y312420D02*
X55261D01*
X48761Y305920D02*
Y318920D01*
X42261Y337820D02*
X55261D01*
X48761Y331320D02*
Y344320D01*
X42261Y363220D02*
X55261D01*
X48761Y356720D02*
Y369720D01*
X106741Y382820D02*
X115241D01*
X110991Y378570D02*
Y387070D01*
X106741Y292820D02*
X115241D01*
X110991Y288570D02*
Y297070D01*
X7361Y24130D02*
X39361D01*
X23361Y8130D02*
Y40130D01*
X538221Y24130D02*
X570221D01*
X554221Y8130D02*
Y40130D01*
X535681Y455930D02*
X567681D01*
X551681Y439930D02*
Y471930D01*
X12441Y455930D02*
X44441D01*
X28441Y439930D02*
Y471930D01*
M02*
