G04*
G04 #@! TF.GenerationSoftware,Altium Limited,Altium Designer,23.6.0 (18)*
G04*
G04 Layer_Color=65535*
%FSLAX44Y44*%
%MOMM*%
G71*
G04*
G04 #@! TF.SameCoordinates,C98FF4F9-6FCD-44A5-A41D-EB2AB3F7E161*
G04*
G04*
G04 #@! TF.FilePolarity,Positive*
G04*
G01*
G75*
%ADD10C,0.2500*%
%ADD11C,0.2000*%
%ADD12C,0.2540*%
%ADD13C,0.1500*%
%ADD14R,1.8500X0.9820*%
D10*
X493241Y344540D02*
G03*
X493241Y344540I-1250J0D01*
G01*
X410691Y397570D02*
G03*
X410691Y397570I-1250J0D01*
G01*
X208621Y451350D02*
G03*
X208621Y451350I-1250J0D01*
G01*
X99801Y452620D02*
G03*
X99801Y452620I-1250J0D01*
G01*
X376001Y184150D02*
G03*
X376001Y184150I-1250J0D01*
G01*
X494681Y235520D02*
G03*
X494681Y235520I-1250J0D01*
G01*
X129651Y80010D02*
G03*
X129651Y80010I-1250J0D01*
G01*
X31861Y78740D02*
G03*
X31861Y78740I-1250J0D01*
G01*
X214861Y228460D02*
G03*
X214861Y228460I-1250J0D01*
G01*
X364541Y43400D02*
G03*
X364541Y43400I-1250J0D01*
G01*
X494511Y125230D02*
G03*
X494511Y125230I-1250J0D01*
G01*
X26361Y362820D02*
G03*
X26361Y362820I-1250J0D01*
G01*
D11*
X309981Y187800D02*
G03*
X309981Y187800I-25000J0D01*
G01*
X433171Y190660D02*
G03*
X433171Y190660I-25000J0D01*
G01*
X515491Y263790D02*
Y337790D01*
X457991Y263790D02*
X515491D01*
X457991D02*
Y337790D01*
X515491D01*
X439241Y285820D02*
Y389820D01*
X393741Y382820D02*
X439241Y389820D01*
X393741Y292820D02*
X439241Y285820D01*
X393741Y292820D02*
Y382820D01*
X416761Y407100D02*
X479761D01*
X416761Y431100D02*
X479761D01*
X416761Y425840D02*
Y431100D01*
X479761Y407100D02*
Y412360D01*
X416761Y407100D02*
Y412360D01*
X479761Y425840D02*
Y431100D01*
X415491Y462850D02*
X478491D01*
X415491Y438850D02*
X478491D01*
Y444110D01*
X415491Y457590D02*
Y462850D01*
X478491Y457590D02*
Y462850D01*
X415491Y438850D02*
Y444110D01*
X212621Y416850D02*
Y474350D01*
Y416850D02*
X311621D01*
Y474350D01*
X212621D02*
X311621D01*
X103801Y418120D02*
Y475620D01*
Y418120D02*
X202801D01*
Y475620D01*
X103801D02*
X202801D01*
X326251Y156050D02*
Y263050D01*
X321251Y156050D02*
Y263050D01*
X368251Y156050D02*
Y263050D01*
X321251Y156050D02*
X368251D01*
X321251Y263050D02*
X368251D01*
X516931Y154770D02*
Y228770D01*
X459431Y154770D02*
X516931D01*
X459431D02*
Y228770D01*
X516931D01*
X135151Y103510D02*
X209151D01*
Y46010D02*
Y103510D01*
X135151Y46010D02*
X209151D01*
X135151D02*
Y103510D01*
X37361Y102240D02*
X111361D01*
Y44740D02*
Y102240D01*
X37361Y44740D02*
X111361D01*
X37361D02*
Y102240D01*
X124961Y198285D02*
X226561D01*
X124961Y152235D02*
Y198285D01*
Y152235D02*
X226561D01*
Y168681D01*
X221561D02*
X226561D01*
X221561D02*
Y181839D01*
X226561D01*
Y198285D01*
X384041Y38100D02*
Y76200D01*
X409441Y38100D02*
Y76200D01*
X384041D02*
X386241D01*
X384041Y38100D02*
X386241D01*
X407241D02*
X409441D01*
X407241Y76200D02*
X409441D01*
X328791Y36900D02*
Y140900D01*
X323791Y36900D02*
X369791D01*
Y36900D02*
Y140900D01*
X323791D02*
X369791D01*
X323791Y36900D02*
Y140900D01*
X409441Y101600D02*
Y139700D01*
X384041Y101600D02*
Y139700D01*
X407241Y101600D02*
X409441D01*
X407241Y139700D02*
X409441D01*
X384041D02*
X386241D01*
X384041Y101600D02*
X386241D01*
X516761Y44480D02*
Y118480D01*
X459261Y44480D02*
X516761D01*
X459261D02*
Y118480D01*
X516761D01*
X65841Y143210D02*
Y206210D01*
X41841Y143210D02*
Y206210D01*
Y143210D02*
X47101D01*
X60581Y206210D02*
X65841D01*
X60581Y143210D02*
X65841D01*
X41841Y206210D02*
X47101D01*
X376991Y306870D02*
Y369870D01*
X352991Y306870D02*
Y369870D01*
Y306870D02*
X358251D01*
X371731Y369870D02*
X376991D01*
X371731Y306870D02*
X376991D01*
X352991Y369870D02*
X358251D01*
X337411Y317840D02*
Y360340D01*
X318911D02*
X337411D01*
X318911Y317840D02*
X337411D01*
X318911D02*
Y360340D01*
X284621Y316020D02*
Y358520D01*
Y316020D02*
X303121D01*
X284621Y358520D02*
X303121D01*
Y316020D02*
Y358520D01*
X267561Y317290D02*
Y359790D01*
X249061D02*
X267561D01*
X249061Y317290D02*
X267561D01*
X249061D02*
Y359790D01*
X214771Y316570D02*
Y359070D01*
Y316570D02*
X233271D01*
X214771Y359070D02*
X233271D01*
Y316570D02*
Y359070D01*
X79941Y142490D02*
Y205490D01*
X103941Y142490D02*
Y205490D01*
X98681D02*
X103941D01*
X79941Y142490D02*
X85201D01*
X79941Y205490D02*
X85201D01*
X98681Y142490D02*
X103941D01*
X197711Y315300D02*
Y357800D01*
X179211D02*
X197711D01*
X179211Y315300D02*
X197711D01*
X179211D02*
Y357800D01*
X141111Y316570D02*
Y359070D01*
Y316570D02*
X159611D01*
X141111Y359070D02*
X159611D01*
Y316570D02*
Y359070D01*
X30711Y380820D02*
X79011Y391570D01*
Y284570D02*
Y391070D01*
X30711Y294820D02*
X79011Y284070D01*
X30711Y294820D02*
Y380820D01*
X98991Y306320D02*
Y369320D01*
X122991Y306320D02*
Y369320D01*
X117731D02*
X122991D01*
X98991Y306320D02*
X104251D01*
X98991Y369320D02*
X104251D01*
X117731Y306320D02*
X122991D01*
D12*
X476751Y365757D02*
X471673D01*
X474212D01*
Y353062D01*
X471673Y350522D01*
X469133D01*
X466594Y353062D01*
X481829Y350522D02*
X486908D01*
X484369D01*
Y365757D01*
X481829Y363218D01*
X458971Y382272D02*
Y392428D01*
X456432Y394967D01*
X451353D01*
X448814Y392428D01*
Y382272D01*
X451353Y379733D01*
X456432D01*
X453893Y384811D02*
X458971Y379733D01*
X456432D02*
X458971Y382272D01*
X464049Y379733D02*
X469128D01*
X466589D01*
Y394967D01*
X464049Y392428D01*
X363175Y439422D02*
Y454658D01*
X370793D01*
X373332Y452118D01*
Y447040D01*
X370793Y444501D01*
X363175D01*
X368253D02*
X373332Y439422D01*
X388567Y454658D02*
X383489Y452118D01*
X378410Y447040D01*
Y441962D01*
X380949Y439422D01*
X386028D01*
X388567Y441962D01*
Y444501D01*
X386028Y447040D01*
X378410D01*
X388575Y466092D02*
Y481328D01*
X396193D01*
X398732Y478788D01*
Y473710D01*
X396193Y471171D01*
X388575D01*
X393653D02*
X398732Y466092D01*
X413967Y481328D02*
X403810D01*
Y473710D01*
X408889Y476249D01*
X411428D01*
X413967Y473710D01*
Y468632D01*
X411428Y466092D01*
X406349D01*
X403810Y468632D01*
X330702Y464818D02*
X325623D01*
X328163D01*
Y452122D01*
X325623Y449582D01*
X323084D01*
X320545Y452122D01*
X345937Y464818D02*
X340858Y462278D01*
X335780Y457200D01*
Y452122D01*
X338319Y449582D01*
X343398D01*
X345937Y452122D01*
Y454661D01*
X343398Y457200D01*
X335780D01*
X79242Y471167D02*
X74163D01*
X76703D01*
Y458472D01*
X74163Y455933D01*
X71624D01*
X69085Y458472D01*
X84320Y471167D02*
X94477D01*
Y468628D01*
X84320Y458472D01*
Y455933D01*
X287525Y270508D02*
Y257812D01*
X290064Y255273D01*
X295143D01*
X297682Y257812D01*
Y270508D01*
X312917Y255273D02*
X302760D01*
X312917Y265429D01*
Y267968D01*
X310378Y270508D01*
X305299D01*
X302760Y267968D01*
X470402Y147317D02*
X465323D01*
X467863D01*
Y134622D01*
X465323Y132083D01*
X462784D01*
X460245Y134622D01*
X485637Y147317D02*
X475480D01*
Y139700D01*
X480559Y142239D01*
X483098D01*
X485637Y139700D01*
Y134622D01*
X483098Y132083D01*
X478019D01*
X475480Y134622D01*
X281177Y142238D02*
Y132081D01*
X286255Y127002D01*
X291333Y132081D01*
Y142238D01*
X296412Y127002D02*
Y142238D01*
X304029D01*
X306569Y139698D01*
Y134620D01*
X304029Y132081D01*
X296412D01*
X301490D02*
X306569Y127002D01*
X311647D02*
X316725D01*
X314186D01*
Y142238D01*
X311647Y139698D01*
X124199Y253741D02*
Y241045D01*
X126738Y238506D01*
X131817D01*
X134356Y241045D01*
Y253741D01*
X139434Y238506D02*
X144512D01*
X141973D01*
Y253741D01*
X139434Y251202D01*
X100323Y398526D02*
Y413761D01*
X107941D01*
X110480Y411222D01*
Y406143D01*
X107941Y403604D01*
X100323D01*
X105401D02*
X110480Y398526D01*
X123175D02*
Y413761D01*
X115558Y406143D01*
X125715D01*
X81273Y234696D02*
Y249931D01*
X88890D01*
X91430Y247392D01*
Y242313D01*
X88890Y239774D01*
X81273D01*
X86351D02*
X91430Y234696D01*
X96508Y247392D02*
X99047Y249931D01*
X104125D01*
X106665Y247392D01*
Y244853D01*
X104125Y242313D01*
X101586D01*
X104125D01*
X106665Y239774D01*
Y237235D01*
X104125Y234696D01*
X99047D01*
X96508Y237235D01*
X43173Y235204D02*
Y250439D01*
X50791D01*
X53330Y247900D01*
Y242822D01*
X50791Y240282D01*
X43173D01*
X48251D02*
X53330Y235204D01*
X68565D02*
X58408D01*
X68565Y245361D01*
Y247900D01*
X66026Y250439D01*
X60947D01*
X58408Y247900D01*
X354323Y399034D02*
Y414269D01*
X361940D01*
X364480Y411730D01*
Y406651D01*
X361940Y404112D01*
X354323D01*
X359401D02*
X364480Y399034D01*
X369558D02*
X374636D01*
X372097D01*
Y414269D01*
X369558Y411730D01*
X35296Y403605D02*
Y413762D01*
X32757Y416301D01*
X27678D01*
X25139Y413762D01*
Y403605D01*
X27678Y401066D01*
X32757D01*
X30217Y406144D02*
X35296Y401066D01*
X32757D02*
X35296Y403605D01*
X50531Y401066D02*
X40374D01*
X50531Y411223D01*
Y413762D01*
X47991Y416301D01*
X42913D01*
X40374Y413762D01*
X469132Y257808D02*
X464053D01*
X466593D01*
Y245112D01*
X464053Y242572D01*
X461514D01*
X458975Y245112D01*
X481828Y242572D02*
Y257808D01*
X474210Y250190D01*
X484367D01*
X138932Y124458D02*
X133853D01*
X136393D01*
Y111762D01*
X133853Y109222D01*
X131314D01*
X128775Y111762D01*
X144010Y121918D02*
X146549Y124458D01*
X151628D01*
X154167Y121918D01*
Y119379D01*
X151628Y116840D01*
X149088D01*
X151628D01*
X154167Y114301D01*
Y111762D01*
X151628Y109222D01*
X146549D01*
X144010Y111762D01*
X20822Y126997D02*
X15743D01*
X18283D01*
Y114302D01*
X15743Y111763D01*
X13204D01*
X10665Y114302D01*
X36057Y111763D02*
X25900D01*
X36057Y121919D01*
Y124458D01*
X33518Y126997D01*
X28439D01*
X25900Y124458D01*
X142487Y413761D02*
Y398526D01*
X150105D01*
X152644Y401065D01*
Y411222D01*
X150105Y413761D01*
X142487D01*
X167879D02*
X162800Y411222D01*
X157722Y406143D01*
Y401065D01*
X160261Y398526D01*
X165340D01*
X167879Y401065D01*
Y403604D01*
X165340Y406143D01*
X157722D01*
X180587Y412491D02*
Y397256D01*
X188204D01*
X190744Y399795D01*
Y409952D01*
X188204Y412491D01*
X180587D01*
X205979D02*
X195822D01*
Y404874D01*
X200900Y407413D01*
X203440D01*
X205979Y404874D01*
Y399795D01*
X203440Y397256D01*
X198361D01*
X195822Y399795D01*
X216147Y413761D02*
Y398526D01*
X223764D01*
X226304Y401065D01*
Y411222D01*
X223764Y413761D01*
X216147D01*
X239000Y398526D02*
Y413761D01*
X231382Y406143D01*
X241539D01*
X250437Y414269D02*
Y399034D01*
X258055D01*
X260594Y401573D01*
Y411730D01*
X258055Y414269D01*
X250437D01*
X265672Y411730D02*
X268211Y414269D01*
X273290D01*
X275829Y411730D01*
Y409191D01*
X273290Y406651D01*
X270750D01*
X273290D01*
X275829Y404112D01*
Y401573D01*
X273290Y399034D01*
X268211D01*
X265672Y401573D01*
X285997Y412999D02*
Y397764D01*
X293615D01*
X296154Y400303D01*
Y410460D01*
X293615Y412999D01*
X285997D01*
X311389Y397764D02*
X301232D01*
X311389Y407921D01*
Y410460D01*
X308850Y412999D01*
X303771D01*
X301232Y410460D01*
X320287Y415031D02*
Y399796D01*
X327905D01*
X330444Y402335D01*
Y412492D01*
X327905Y415031D01*
X320287D01*
X335522Y399796D02*
X340600D01*
X338061D01*
Y415031D01*
X335522Y412492D01*
X394706Y237232D02*
X392166Y239771D01*
X387088D01*
X384549Y237232D01*
Y227075D01*
X387088Y224536D01*
X392166D01*
X394706Y227075D01*
X407402Y224536D02*
Y239771D01*
X399784Y232153D01*
X409941D01*
X271516Y234438D02*
X268976Y236977D01*
X263898D01*
X261359Y234438D01*
Y224281D01*
X263898Y221742D01*
X268976D01*
X271516Y224281D01*
X276594Y234438D02*
X279133Y236977D01*
X284212D01*
X286751Y234438D01*
Y231899D01*
X284212Y229359D01*
X281672D01*
X284212D01*
X286751Y226820D01*
Y224281D01*
X284212Y221742D01*
X279133D01*
X276594Y224281D01*
X386582Y158748D02*
X384043Y161287D01*
X378964D01*
X376425Y158748D01*
Y148592D01*
X378964Y146053D01*
X384043D01*
X386582Y148592D01*
X401817Y146053D02*
X391660D01*
X401817Y156209D01*
Y158748D01*
X399278Y161287D01*
X394199D01*
X391660Y158748D01*
X395471Y93978D02*
X392932Y96517D01*
X387853D01*
X385314Y93978D01*
Y83822D01*
X387853Y81283D01*
X392932D01*
X395471Y83822D01*
X400549Y81283D02*
X405628D01*
X403088D01*
Y96517D01*
X400549Y93978D01*
D13*
X412103Y149860D02*
Y159857D01*
X407105Y154858D02*
X417102D01*
X285103Y147320D02*
Y157317D01*
X280105Y152318D02*
X290102D01*
D14*
X328161Y322750D02*
D03*
X293871Y353610D02*
D03*
X258311Y322200D02*
D03*
X224021Y354160D02*
D03*
X188461Y320210D02*
D03*
X150361Y354160D02*
D03*
M02*
